<?xml version="1.0" encoding="UTF-8"?>
<svg version="1.1" xmlns="http://www.w3.org/2000/svg" width="561" height="535">
<path d="M0 0 C3.50607746 2.28657226 5.42467069 4.48778007 7.875 7.875 C7.875 8.535 7.875 9.195 7.875 9.875 C9.07125 9.9575 10.2675 10.04 11.5 10.125 C15.91877027 10.6517929 18.38939983 12.17365987 21.875 14.875 C22.57625 14.09125 23.2775 13.3075 24 12.5 C28.14662211 8.71395373 31.31814811 7.875 36.875 7.875 C37.2153125 6.76125 37.2153125 6.76125 37.5625 5.625 C39.22368701 2.14441769 40.51923922 0.80277747 43.875 -1.125 C48.68305606 -1.82045097 52.65476979 -1.66253714 56.875 0.875 C59.875 4.30357143 59.875 4.30357143 59.875 6.875 C61.07125 6.7925 62.2675 6.71 63.5 6.625 C67.98894216 6.625 70.40020264 7.96586733 73.875 10.875 C75.75 13.125 75.75 13.125 76.875 14.875 C77.638125 14.565625 78.40125 14.25625 79.1875 13.9375 C83.24889638 12.33183166 86.38986318 11.69023895 90.75 11.625 C91.77867187 11.59921875 92.80734375 11.5734375 93.8671875 11.546875 C97.28720687 11.91996802 99.12525853 12.84472493 101.875 14.875 C102.205 15.535 102.535 16.195 102.875 16.875 C103.98875 17.32875 105.1025 17.7825 106.25 18.25 C109.93249542 19.90077381 110.9664662 20.47560545 112.875 23.875 C113.16796875 26.890625 113.16796875 26.890625 113.0625 30.125 C113.03542969 31.20265625 113.00835937 32.2803125 112.98046875 33.390625 C112.94566406 34.21046875 112.91085937 35.0303125 112.875 35.875 C113.535 35.875 114.195 35.875 114.875 35.875 C118.0761976 41.44745509 118.0761976 41.44745509 117.546875 45.203125 C116.16024033 49.65805765 114.66308852 52.97822642 110.875 55.875 C110.04726074 56.29612061 109.21952148 56.71724121 108.36669922 57.15112305 C105.31514289 59.26233598 104.88203581 60.55430412 103.8828125 64.08203125 C103.57327637 65.13374512 103.26374023 66.18545898 102.94482422 67.26904297 C102.63303223 68.39713379 102.32124023 69.52522461 102 70.6875 C101.31939735 73.04085371 100.63707364 75.39371029 99.953125 77.74609375 C99.44168945 79.52862549 99.44168945 79.52862549 98.91992188 81.34716797 C97.92475783 84.70700919 96.85301956 88.0271292 95.734375 91.34765625 C95.40034668 92.34498779 95.06631836 93.34231934 94.72216797 94.36987305 C94.08542493 96.25627628 93.43896126 98.13943276 92.78173828 100.01879883 C92.50056152 100.86595459 92.21938477 101.71311035 91.9296875 102.5859375 C91.55046143 103.68881104 91.55046143 103.68881104 91.16357422 104.81396484 C90.77989228 107.55427191 91.32310924 108.6011081 92.875 110.875 C94.82262946 112.72542518 94.82262946 112.72542518 97.171875 114.44921875 C98.04166992 115.11276367 98.91146484 115.77630859 99.80761719 116.45996094 C100.73735352 117.15379883 101.66708984 117.84763672 102.625 118.5625 C103.5727832 119.27567383 104.52056641 119.98884766 105.49707031 120.72363281 C126.69358137 137.24408477 126.69358137 137.24408477 152.17578125 142.57421875 C153.06652344 142.34347656 153.95726562 142.11273438 154.875 141.875 C156.45963163 138.70573675 155.10927798 135.6868601 154.328125 132.375 C154.15625671 131.62468506 153.98438843 130.87437012 153.80731201 130.10131836 C153.4405669 128.50673129 153.07045122 126.91291631 152.69726562 125.31982422 C152.13416503 122.91415471 151.58178104 120.50622954 151.03125 118.09765625 C147.93377041 101.86410891 147.93377041 101.86410891 139.875 87.875 C135.22556112 86.14952268 131.07061824 87.46571411 126.4375 88.625 C125.69951172 88.79515625 124.96152344 88.9653125 124.20117188 89.140625 C119.72750635 90.22225791 115.99645071 91.78687948 111.875 93.875 C109 93.5625 109 93.5625 106.875 92.875 C106.1328125 91.29296875 106.1328125 91.29296875 105.875 88.875 C107.0680848 86.4678465 108.26259243 84.40000015 109.75 82.1875 C110.15694092 81.5682666 110.56388184 80.9490332 110.9831543 80.31103516 C114.68199938 74.84626692 119.00935977 70.3219905 123.875 65.875 C125.21410276 64.54746117 126.54913615 63.2157612 127.875 61.875 C126.92625 61.1325 125.9775 60.39 125 59.625 C121.77523888 57.1012739 120.18386308 54.72817851 119.50390625 50.6484375 C119.2959224 43.1365501 121.24202398 36.74780573 126.47265625 31.171875 C131.40786342 26.95209098 134.79248542 26.54505228 141.109375 26.578125 C145.08044016 27.00439753 146.82980044 28.36271036 149.875 30.875 C153.62061398 32.12353799 156.00842032 31.54165167 159.875 30.875 C160.720625 30.730625 161.56625 30.58625 162.4375 30.4375 C164.97322816 29.90966876 164.97322816 29.90966876 167.6875 28.8125 C173.89845075 26.98574978 179.20787928 27.4387034 185.11328125 29.88671875 C188.87174039 31.99512266 190.55000446 34.90001337 191.875 38.875 C192.07739456 40.95516634 192.23919528 43.0394275 192.375 45.125 C192.61048854 48.7371548 192.90734656 52.0218036 193.6875 55.5625 C194.15674446 63.85248541 189.40388382 69.68022915 184.375 75.75 C175.76834337 86.2602832 173.66068253 96.29263419 174.875 109.875 C175.4791661 113.4400793 176.4790605 116.54622119 177.875 119.875 C178.23078125 120.85984375 178.5865625 121.8446875 178.953125 122.859375 C180.32190863 126.04220923 181.49881001 128.34364835 183.875 130.875 C188.2031976 132.37441131 192.31136023 132.78697727 196.875 132.875 C196.79378906 131.740625 196.71257812 130.60625 196.62890625 129.4375 C195.93748484 115.73216008 195.93748484 115.73216008 199.9375 111.1875 C201.21083736 110.03839067 202.52450861 108.93236147 203.875 107.875 C204.84179688 107.00101563 204.84179688 107.00101563 205.828125 106.109375 C211.21853022 101.26254005 214.60885668 100.38389776 221.95703125 100.48046875 C224.875 100.875 224.875 100.875 227.875 103.25 C230.55419707 107.42432951 232.22773239 112.21847814 233.875 116.875 C234.98875 115.699375 234.98875 115.699375 236.125 114.5 C239.66066897 111.12504326 241.34027168 110.04874283 246.1875 109.5 C250.67496861 109.95635274 253.22561447 111.36000178 256.875 113.875 C257.720625 114.41125 258.56625 114.9475 259.4375 115.5 C263.94415347 119.89109826 268.1842344 125.56623734 268.4375 132.0625 C267.82155781 136.23721931 266.75084808 139.12330384 264.875 142.875 C265.56464844 142.94976562 266.25429688 143.02453125 266.96484375 143.1015625 C275.28847268 144.26618548 281.41176873 146.90247001 287 153.3125 C288.20338615 156.8367023 287.7383904 159.28860912 286.875 162.875 C286.215 163.865 285.555 164.855 284.875 165.875 C286.091875 165.813125 287.30875 165.75125 288.5625 165.6875 C292.50046709 165.70837262 294.80105282 166.24018813 297.875 168.875 C302.09316983 174.40225702 301.51325422 181.25116661 300.875 187.875 C300.34927061 189.70503897 299.77003723 191.52103105 299.125 193.3125 C298.23892674 195.64621247 298.23892674 195.64621247 297.875 197.875 C299.45867492 201.33590454 299.45867492 201.33590454 301.875 203.875 C303.54015151 208.87045453 303.74092117 213.88338132 301.625 218.75 C298.52513774 222.51411846 298.52513774 222.51411846 295.875 223.875 C293.84829801 224.02961438 291.90361107 224.00167643 289.875 223.8828125 C287.89134138 223.77321634 287.89134138 223.77321634 286.15063477 224.42089844 C283.08808182 225.03202905 280.55186612 224.58632798 277.46484375 224.1328125 C276.22798828 223.95363281 274.99113281 223.77445313 273.71679688 223.58984375 C271.78416992 223.29787109 271.78416992 223.29787109 269.8125 223 C268.52021484 222.81308594 267.22792969 222.62617188 265.89648438 222.43359375 C256.328125 221.02604167 256.328125 221.02604167 252.875 219.875 C253.205 220.679375 253.535 221.48375 253.875 222.3125 C255.43514753 227.87052557 255.92990244 232.62759914 253.4375 237.9375 C250.48439299 240.17033701 250.00102757 239.9945041 246.5 239.6875 C244.125404 239.44584092 244.125404 239.44584092 241.875 239.875 C240.04429025 241.72755593 238.79557375 243.71355812 237.37890625 245.89453125 C234.82405999 249.25896516 231.949356 250.17887887 227.875 250.875 C217.64644245 251.85180631 209.83235325 249.69819021 200.875 244.875 C201.03621338 245.38240723 201.19742676 245.88981445 201.36352539 246.41259766 C202.04571597 249.69688126 202.02328447 252.93435745 202.05859375 256.2734375 C202.09815409 257.7370563 202.14056115 259.20060041 202.18554688 260.6640625 C202.255981 262.95820271 202.31249143 265.24770164 202.32104492 267.54296875 C202.06451515 276.55115661 202.06451515 276.55115661 206.07836914 284.11035156 C208.68614561 285.70715875 208.68614561 285.70715875 211.39453125 286.75634766 C215.52975105 288.62126666 217.74991196 291.96985666 219.875 295.875 C221.36062198 300.51756869 220.68580479 303.40124699 218.875 307.875 C214.90340314 308.95556059 212.44946843 308.73315614 208.5625 307.4375 C207.67949219 307.15003906 206.79648437 306.86257813 205.88671875 306.56640625 C204.89091797 306.22416016 204.89091797 306.22416016 203.875 305.875 C203.12734375 306.71804688 202.3796875 307.56109375 201.609375 308.4296875 C200.61490084 309.53674364 199.62009151 310.64349875 198.625 311.75 C198.13386719 312.30558594 197.64273437 312.86117188 197.13671875 313.43359375 C192.39141469 318.68506358 192.39141469 318.68506358 188.875 319.875 C185.77175993 319.72362244 184.37348875 319.35568558 182.125 317.1875 C180.63184832 314.4251694 180.22762924 311.97813728 179.875 308.875 C178.988125 309.390625 178.10125 309.90625 177.1875 310.4375 C173.875 311.875 173.875 311.875 171.1875 311.8125 C168.39339357 310.67975415 167.57157644 309.30496683 165.875 306.875 C164.94558594 307.35710937 164.01617187 307.83921875 163.05859375 308.3359375 C161.81006245 308.97428433 160.56135505 309.61228678 159.3125 310.25 C158.70341797 310.56710937 158.09433594 310.88421875 157.46679688 311.2109375 C151.30987534 314.33826273 145.81945908 316.65148953 138.875 314.875 C138.215 314.545 137.555 314.215 136.875 313.875 C137.205 311.565 137.535 309.255 137.875 306.875 C137.02035156 306.88660156 136.16570312 306.89820313 135.28515625 306.91015625 C133.62806641 306.92369141 133.62806641 306.92369141 131.9375 306.9375 C130.83535156 306.94910156 129.73320312 306.96070313 128.59765625 306.97265625 C125.875 306.875 125.875 306.875 124.875 305.875 C124.3721982 301.60118471 124.48572731 299.48019134 126.83984375 295.8203125 C129.05330608 293.29327634 130.87964198 292.33914557 134.08984375 291.41015625 C139.48136488 289.81208083 144.07104115 288.18615336 147.875 283.875 C152.43839148 273.06696755 154.11453869 259.52153645 153.875 247.875 C152.72902344 247.318125 151.58304687 246.76125 150.40234375 246.1875 C137.5738432 239.79866948 130.88077308 234.86429987 125.8203125 221.0234375 C122.13591916 208.75227621 124.03881564 195.47749291 124.875 182.875 C123.98683594 182.62234375 123.09867187 182.3696875 122.18359375 182.109375 C118.78836252 180.84267716 116.70138982 179.43645404 113.9375 177.125 C113.07640625 176.40828125 112.2153125 175.6915625 111.328125 174.953125 C110.51859375 174.26734375 109.7090625 173.5815625 108.875 172.875 C108.23046875 172.35421875 107.5859375 171.8334375 106.921875 171.296875 C103.2603164 168.29505669 100.17859715 165.04596922 97.1171875 161.44140625 C93.97266619 157.84218935 90.70430529 154.36310368 87.4375 150.875 C86.7973999 150.19123291 86.1572998 149.50746582 85.49780273 148.80297852 C83.95785833 147.15938601 82.41697106 145.51669096 80.875 143.875 C77.66243138 151.85744947 75.62510996 160.08718255 73.48046875 168.40820312 C70.26617719 180.64941482 70.26617719 180.64941482 67.875 184.875 C63.76443355 187.12771541 59.77014701 187.15270331 55.1953125 187.10546875 C54.46432343 187.10501053 53.73333435 187.10455231 52.98019409 187.1040802 C51.43876516 187.10106924 49.89733897 187.09321766 48.35595703 187.08081055 C46.01453686 187.06261298 43.67351465 187.06030077 41.33203125 187.06054688 C39.82812163 187.05562834 38.32421466 187.04979856 36.8203125 187.04296875 C36.12841827 187.04185593 35.43652405 187.0407431 34.72366333 187.03959656 C30.33884322 186.99746872 26.19037767 186.57832728 21.875 185.875 C21.58625 186.596875 21.2975 187.31875 21 188.0625 C16.59446987 193.8933487 7.83155956 197.09714576 0.734375 198.2109375 C-5.40336545 198.90755221 -11.57821462 199.0324983 -17.75 199.125 C-18.53721436 199.14643066 -19.32442871 199.16786133 -20.13549805 199.18994141 C-25.73719928 199.22148712 -31.12341823 198.56222842 -36.125 195.875 C-39.10788942 192.7732739 -39.93827665 189.59165906 -40.94921875 185.46484375 C-41.25537109 184.22798828 -41.56152344 182.99113281 -41.87695312 181.71679688 C-42.03043213 181.07605225 -42.18391113 180.43530762 -42.34204102 179.77514648 C-42.81238259 177.8129898 -43.29654506 175.85465115 -43.78320312 173.89648438 C-46.125 164.32457689 -46.125 164.32457689 -46.125 160.875 C-50.45554688 163.45270648 -53.31095363 166.12163226 -56.48828125 170.0078125 C-60.14810556 174.182982 -64.41487471 177.86288503 -69.1875 180.6875 C-71.2941202 182.63295845 -71.2941202 182.63295845 -71.30859375 184.8125 C-70.80007664 191.39076389 -69.14690341 197.89162971 -67.82421875 204.34375 C-66.99398387 208.53666808 -66.36672694 212.60923048 -66.125 216.875 C-66.06054688 217.8959375 -65.99609375 218.916875 -65.9296875 219.96875 C-65.38668294 236.04168488 -69.77704018 251.18105695 -80.40234375 263.51953125 C-82.29089843 265.65925873 -82.29089843 265.65925873 -82.25390625 267.875 C-82.06699219 268.535 -81.88007813 269.195 -81.6875 269.875 C-81.47480469 270.64457031 -81.26210937 271.41414063 -81.04296875 272.20703125 C-79.579651 276.45999305 -77.8984768 280.61928468 -76.1484375 284.76171875 C-75.07421457 288.02948852 -74.81588278 290.45999071 -75.125 293.875 C-77.48583508 296.6135687 -78.94755331 296.85886848 -82.5625 297.1875 C-87.24293036 298.09074095 -88.15795228 300.29932711 -91.125 303.875 C-93.94140625 304.375 -93.94140625 304.375 -97.125 303.875 C-99.8359375 301.71484375 -99.8359375 301.71484375 -102.5 298.8125 C-103.46086239 297.80337438 -104.42310866 296.79556469 -105.38671875 295.7890625 C-106.29035156 294.82742188 -107.19398438 293.86578125 -108.125 292.875 C-113.07065415 287.60949468 -113.07065415 287.60949468 -119.6875 285.3125 C-121.17188048 285.45287401 -122.65088429 285.6512297 -124.125 285.875 C-125.39214844 286.03097656 -126.65929687 286.18695313 -127.96484375 286.34765625 C-131.69195263 286.8122811 -135.40839714 287.33299542 -139.125 287.875 C-139.32134033 288.52573486 -139.51768066 289.17646973 -139.7199707 289.84692383 C-140.616036 292.7968561 -141.52657766 295.74212332 -142.4375 298.6875 C-142.9005957 300.22374023 -142.9005957 300.22374023 -143.37304688 301.79101562 C-143.67919922 302.77392578 -143.98535156 303.75683594 -144.30078125 304.76953125 C-144.57833252 305.67550049 -144.85588379 306.58146973 -145.1418457 307.51489258 C-146.1722496 309.98842486 -146.98673052 311.27544561 -149.125 312.875 C-153.49206908 313.26491688 -155.43013897 313.33824069 -159.125 310.875 C-162.95248905 311.05732592 -162.95248905 311.05732592 -166.125 312.875 C-169.0753658 313.21542682 -170.58453098 313.2599463 -173.0390625 311.51171875 C-178.42141426 305.37977006 -180.60755206 299.23210808 -181.390625 291.125 C-181.69388117 288.44357704 -182.0063331 286.33606717 -183.125 283.875 C-185.49125872 282.15968234 -187.81826631 281.12263689 -190.51953125 280.015625 C-195.49094697 277.83923311 -199.09688633 274.38504195 -202.125 269.9375 C-202.785 269.256875 -203.445 268.57625 -204.125 267.875 C-207.62221894 267.80283361 -207.62221894 267.80283361 -211.125 268.875 C-211.95 269.060625 -212.775 269.24625 -213.625 269.4375 C-216.33864829 270.99784776 -217.55262422 272.51409903 -219.5 274.9375 C-222.01741071 277.94197495 -222.9137485 278.80215465 -226.75 280.125 C-230.86648571 279.82007513 -232.39272116 278.93846415 -235.125 275.875 C-235.125 274.555 -235.125 273.235 -235.125 271.875 C-232.51917629 270.94434867 -231.48301776 270.72582593 -228.875 271.8125 C-228.2975 272.163125 -227.72 272.51375 -227.125 272.875 C-225.805 271.225 -224.485 269.575 -223.125 267.875 C-223.74375 267.58625 -224.3625 267.2975 -225 267 C-227.125 265.875 -227.125 265.875 -229.125 263.875 C-230.74768483 258.50765788 -229.64851523 255.64163989 -227.125 250.875 C-224.07516004 249.35008002 -221.4826631 249.63937452 -218.125 249.875 C-215.31354605 252.00056784 -214.44672106 254.24648794 -213.4375 257.5625 C-213.06044922 258.77486328 -213.06044922 258.77486328 -212.67578125 260.01171875 C-212.49402344 260.62660156 -212.31226563 261.24148438 -212.125 261.875 C-211.135 261.875 -210.145 261.875 -209.125 261.875 C-209.84816406 260.40740234 -209.84816406 260.40740234 -210.5859375 258.91015625 C-211.22445286 257.58617588 -211.86244559 256.26194338 -212.5 254.9375 C-212.97566406 253.9774707 -212.97566406 253.9774707 -213.4609375 252.99804688 C-217.33105595 244.89498637 -218.43341483 237.0721601 -218.390625 228.15234375 C-218.39253845 227.24859512 -218.3944519 226.3448465 -218.39642334 225.41371155 C-218.39777632 223.51026123 -218.3941423 221.6068014 -218.38574219 219.70336914 C-218.37511833 216.84434334 -218.38562237 213.98595856 -218.3984375 211.12695312 C-218.41190824 196.17216401 -217.42460733 181.95056384 -213.25 167.5 C-213.00636719 166.60667969 -212.76273438 165.71335937 -212.51171875 164.79296875 C-210.99435533 159.37605996 -209.13620173 154.29382068 -206.79248047 149.17724609 C-205.96397112 146.31958581 -206.12923762 144.66933971 -207.125 141.875 C-209.7625892 140.64954475 -212.11357413 139.7566906 -214.875 138.9375 C-221.09321514 137.08657445 -224.50399044 135.41507458 -228.125 129.875 C-229.29707644 125.50701328 -228.590455 121.82530396 -226.625 117.8125 C-224.56706319 115.39442425 -222.51188394 113.38983928 -220.1875 111.25 C-215.30365836 106.47428769 -213.46953599 101.18223334 -211.125 94.875 C-203.08740364 74.67199114 -203.08740364 74.67199114 -194.6875 69.9375 C-188.6377339 68.13318379 -184.40676939 68.7405347 -178.5 70.625 C-175.71722897 71.49842375 -175.71722897 71.49842375 -173.125 71.875 C-170.27170688 70.35908701 -170.27170688 70.35908701 -168.125 67.875 C-154.71762099 61.41072798 -140.06164254 64.25717591 -126.125 67.875 C-125.34382813 68.16761719 -124.56265625 68.46023437 -123.7578125 68.76171875 C-121.53457485 69.67293069 -121.53457485 69.67293069 -118.125 69.875 C-115.05187913 67.90491001 -112.66717295 65.47088083 -110.125 62.875 C-105.44769335 60.53634667 -98.65109861 61.15384624 -93.73046875 62.55859375 C-87.58284119 65.39143934 -83.80209716 69.78087753 -81.3125 76.0625 C-80.125 79.875 -80.125 79.875 -80.125 82.875 C-78.64 83.1534375 -78.64 83.1534375 -77.125 83.4375 C-71.02907838 85.18450193 -66.66942303 89.65489189 -63.125 94.75 C-61.47728357 99.89911386 -60.83469471 104.30691666 -63.33203125 109.27734375 C-65.42447055 112.46102988 -67.62985972 115.351644 -70.25 118.12109375 C-72.73301221 121.76801794 -73.00432817 124.86685651 -73.375 129.1875 C-73.45234375 129.92806641 -73.5296875 130.66863281 -73.609375 131.43164062 C-73.79651741 133.24458268 -73.96287704 135.05964954 -74.125 136.875 C-71.54063186 135.9193848 -68.95750699 134.96062111 -66.375 134 C-65.64539063 133.73058594 -64.91578125 133.46117187 -64.1640625 133.18359375 C-63.45507812 132.91933594 -62.74609375 132.65507812 -62.015625 132.3828125 C-61.36625977 132.14191895 -60.71689453 131.90102539 -60.04785156 131.65283203 C-58.01291553 130.82965958 -56.07541065 129.88056191 -54.125 128.875 C-55.68580246 117.34907412 -58.63925858 106.14772993 -61.4375 94.875 C-62.15487625 91.9631963 -62.87104842 89.05109893 -63.58688354 86.13891602 C-64.06097175 84.22043247 -64.53907143 82.30293556 -65.02127075 80.38647461 C-66.21585451 75.63279852 -67.35458022 70.87826665 -68.38427734 66.0859375 C-68.59030075 65.16635254 -68.79632416 64.24676758 -69.0085907 63.29931641 C-69.39592801 61.5638488 -69.76400169 59.82392673 -70.10920715 58.07958984 C-71.21838317 53.10530212 -71.21838317 53.10530212 -75.1652832 49.953125 C-76.14198975 49.59734375 -77.11869629 49.2415625 -78.125 48.875 C-81.74404313 45.01468733 -81.62916923 40.71330721 -81.47265625 35.6640625 C-80.7436574 29.81568973 -78.67788186 26.13671651 -74.125 22.4375 C-71.125 20.875 -71.125 20.875 -69.0234375 20.53515625 C-68.39695313 20.31730469 -67.77046875 20.09945312 -67.125 19.875 C-66.20046895 18.02127239 -66.20046895 18.02127239 -65.75 15.75 C-64.0204961 9.85652746 -61.02092473 5.58285304 -55.6875 2.4375 C-51.19970459 1.45237418 -47.59962237 1.12054204 -43.4375 3.25 C-42.674375 3.78625 -41.91125 4.3225 -41.125 4.875 C-39.04165365 6.1266467 -39.04165365 6.1266467 -37.125 6.875 C-36.465 6.545 -35.805 6.215 -35.125 5.875 C-33.50334248 5.75351695 -31.87615673 5.69956348 -30.25 5.6875 C-28.95449219 5.66623047 -28.95449219 5.66623047 -27.6328125 5.64453125 C-25.0008712 5.88640748 -23.38519456 6.54516459 -21.125 7.875 C-20.42375 6.946875 -19.7225 6.01875 -19 5.0625 C-13.8243816 -1.08718142 -7.6144768 -2.74121165 0 0 Z M45.875 7.875 C44.58256464 11.9946377 43.61247375 15.54331683 43.875 19.875 C43.153125 19.400625 42.43125 18.92625 41.6875 18.4375 C37.98678445 16.36600573 37.98678445 16.36600573 33.875 15.875 C30.92039053 17.88950646 29.24914858 19.53772056 28.26953125 23.0390625 C27.63684015 27.49023045 27.65449607 30.82584578 29.875 34.875 C31.7621875 34.75125 31.7621875 34.75125 33.6875 34.625 C35.91015625 34.61328125 35.91015625 34.61328125 37.875 34.875 C39.625 36.8125 39.625 36.8125 40.875 38.875 C43.65521834 40.17243523 44.6842712 39.94002118 47.625 38.9375 C48.3675 38.586875 49.11 38.23625 49.875 37.875 C50.555625 38.865 51.23625 39.855 51.9375 40.875 C53.24155729 42.57455734 53.24155729 42.57455734 54.875 43.875 C58.58573505 44.37696294 58.58573505 44.37696294 61.875 43.875 C62.205 42.885 62.535 41.895 62.875 40.875 C64.6875 41.125 64.6875 41.125 66.875 41.875 C67.2875 42.555625 67.7 43.23625 68.125 43.9375 C69.6598856 46.06456994 69.6598856 46.06456994 71.8046875 46.1015625 C73.82921337 46.06553891 75.8525199 45.97286194 77.875 45.875 C79.78456957 47.78456957 79.66146449 51.15190473 80.08203125 53.74609375 C80.69509167 56.05668222 80.69509167 56.05668222 82.94921875 57.16015625 C83.58472656 57.39605469 84.22023438 57.63195312 84.875 57.875 C86.5377026 55.20021756 87.87483813 52.8754856 88.875 49.875 C89.803125 49.91625 90.73125 49.9575 91.6875 50 C95.03309719 50.14636339 95.03309719 50.14636339 97.875 47.875 C99.36 48.865 99.36 48.865 100.875 49.875 C103.95165027 49.79278291 103.95165027 49.79278291 106.875 48.875 C109.10612508 46.12923759 109.10612508 46.12923759 108.875 43.375 C108.04092007 40.5528759 108.04092007 40.5528759 104.8125 39.0625 C103.843125 38.670625 102.87375 38.27875 101.875 37.875 C102.48777612 34.91324877 103.12872522 33.49441217 104.875 30.875 C104.875 29.555 104.875 28.235 104.875 26.875 C101.58424004 27.25404208 101.58424004 27.25404208 98.875 28.875 C98.441875 27.76125 98.00875 26.6475 97.5625 25.5 C96.17588881 21.69987666 96.17588881 21.69987666 92.875 19.875 C88.95799846 19.36408676 87.34561027 19.56808026 84 21.75 C82.948125 22.801875 82.948125 22.801875 81.875 23.875 C81.875 24.535 81.875 25.195 81.875 25.875 C79.88932292 25.58203125 77.90364583 25.2890625 75.91796875 24.99609375 C73.6724658 24.73595201 73.6724658 24.73595201 70.875 25.875 C70.813125 24.8025 70.75125 23.73 70.6875 22.625 C70.21354041 18.73968039 70.21354041 18.73968039 67.3125 16.4375 C66.508125 15.921875 65.70375 15.40625 64.875 14.875 C61.95982708 15.94901108 60.09689824 16.65310176 57.875 18.875 C57.45347656 18.16472656 57.03195312 17.45445313 56.59765625 16.72265625 C56.04980469 15.80355469 55.50195312 14.88445312 54.9375 13.9375 C54.39222656 13.02097656 53.84695313 12.10445312 53.28515625 11.16015625 C52.06767827 8.99087323 52.06767827 8.99087323 50.875 7.875 C49.20882885 7.83436168 47.54111905 7.832279 45.875 7.875 Z M-13.078125 12.0078125 C-15.48734792 14.20553876 -18.00855924 16.22271934 -20.5625 18.25 C-21.42746094 18.93835938 -22.29242188 19.62671875 -23.18359375 20.3359375 C-24.14458984 21.09777344 -24.14458984 21.09777344 -25.125 21.875 C-25.41375 20.92625 -25.7025 19.9775 -26 19 C-26.89325109 15.82288422 -26.89325109 15.82288422 -29.125 13.875 C-31.49514192 13.20659146 -31.49514192 13.20659146 -34.125 13.875 C-36.10376042 15.72471083 -37.5156826 17.66793614 -39.125 19.875 C-39.785 18.885 -40.445 17.895 -41.125 16.875 C-43.66545287 13.33821928 -43.66545287 13.33821928 -47.125 10.875 C-50.58164078 10.49927818 -52.44420759 10.42113839 -55.375 12.375 C-58.858022 17.35074571 -59.42428318 22.88933644 -59.125 28.875 C-59.72828125 28.75640625 -60.3315625 28.6378125 -60.953125 28.515625 C-66.01902024 27.59062395 -66.01902024 27.59062395 -70.625 29.4375 C-72.48865235 32.46593508 -73.19801651 34.29719079 -73.125 37.875 C-71.0253536 41.17444434 -69.23534585 42.57718129 -65.4453125 43.59375 C-63.51981043 43.94105541 -61.58690745 44.25008117 -59.6484375 44.515625 C-57.125 44.875 -57.125 44.875 -54.125 45.875 C-53.17578125 47.94140625 -53.17578125 47.94140625 -52.4375 50.4375 C-52.18613281 51.26378906 -51.93476563 52.09007812 -51.67578125 52.94140625 C-51.49402344 53.57949219 -51.31226563 54.21757812 -51.125 54.875 C-49.475 55.205 -47.825 55.535 -46.125 55.875 C-44.06574319 52.78611478 -43.8859626 52.16564073 -44 48.6875 C-44.04125 47.429375 -44.0825 46.17125 -44.125 44.875 C-42.26875 44.9059375 -42.26875 44.9059375 -40.375 44.9375 C-37.95422659 44.9545477 -36.20208221 44.8985529 -33.875 44.1875 C-33.00875 44.0328125 -33.00875 44.0328125 -32.125 43.875 C-31.53074219 44.36613281 -30.93648437 44.85726562 -30.32421875 45.36328125 C-26.96862362 47.66988039 -24.41811868 46.9183052 -20.53125 46.38671875 C-15.56606406 45.3308107 -12.86262797 43.05348479 -10.125 38.875 C-7.125 39.875 -7.125 39.875 -6.125 41.875 C-4.12516466 41.08382096 -4.12516466 41.08382096 -2.125 39.875 C-1.63 38.39 -1.63 38.39 -1.125 36.875 C0.525 37.205 2.175 37.535 3.875 37.875 C4.060625 37.25625 4.24625 36.6375 4.4375 36 C6.56875606 32.84944756 9.29952061 32.83271769 12.875 31.875 C15.34443529 28.17084707 15.34413089 26.25355495 14.875 21.875 C12.57214263 19.11157116 10.8592327 18.87195719 7.3125 18.1875 C3.95233262 17.82973213 3.95233262 17.82973213 0.875 17.875 C0.41927083 15.85677083 -0.03645833 13.83854167 -0.4921875 11.8203125 C-1.02974428 9.66780036 -1.02974428 9.66780036 -3.125 7.875 C-7.79620838 6.80729523 -9.85154056 9.02393574 -13.078125 12.0078125 Z M128.875 37.875 C127.61551703 40.81379359 126.68710605 43.7850355 125.875 46.875 C126.679375 46.854375 127.48375 46.83375 128.3125 46.8125 C130.875 46.875 130.875 46.875 131.875 47.875 C132.16886153 51.59724599 132.02309171 52.65286243 129.875 55.875 C131.78676961 58.24902319 131.78676961 58.24902319 135.125 57.9375 C140.94828852 56.28756825 143.38337381 52.4691325 146.3125 47.375 C147.1081074 43.83896712 146.82768676 41.36818479 145.875 37.875 C143.12143536 34.71649938 141.52860338 33.96837191 137.375 33.375 C133.13845177 33.98022118 131.69825067 34.65963118 128.875 37.875 Z M162.875 37.875 C159.77319692 42.03273605 157.94262595 46.0490993 157.75 51.25 C159.24443263 54.73700947 160.57849596 55.98126364 163.875 57.875 C168.45619571 58.9833538 170.92967955 59.1031808 175.5 58 C180.07867853 55.11712833 182.52023334 51.70890479 184.875 46.875 C185.79455603 43.69991198 185.79455603 43.69991198 184.875 40.875 C182.702365 38.30214276 180.89506162 36.38503081 177.875 34.875 C172.47316387 34.44285311 167.39781318 34.71186343 162.875 37.875 Z M19.875 36.875 C20.875 38.875 20.875 38.875 20.875 38.875 Z M27.875 42.875 C27.53589006 44.91571515 27.20397296 46.95762621 26.875 49 C26.689375 50.13695312 26.50375 51.27390625 26.3125 52.4453125 C25.90543951 55.63637602 25.79690098 58.66317791 25.875 61.875 C26.48988281 61.91238281 27.10476563 61.94976562 27.73828125 61.98828125 C28.54652344 62.05402344 29.35476563 62.11976563 30.1875 62.1875 C30.98800781 62.24550781 31.78851563 62.30351562 32.61328125 62.36328125 C35.3956021 62.99278735 36.21447077 63.56102318 37.875 65.875 C37.92773438 68.67700195 37.92773438 68.67700195 37.46875 72.11328125 C37.30431396 73.39219238 37.13987793 74.67110352 36.97045898 75.98876953 C36.77240708 77.38840789 36.57390827 78.78798308 36.375 80.1875 C36.18136062 81.64162986 35.98874852 83.09589686 35.79711914 84.55029297 C34.5401212 93.9116959 32.97116107 103.20146478 31.3125 112.5 C28.88431121 126.12576109 27.72414563 139.7418209 26.77514648 153.53759766 C26.72033615 154.3289209 26.66552582 155.12024414 26.60905457 155.93554688 C26.50792295 157.42143648 26.4106897 158.90759855 26.31806946 160.39404297 C26.10204925 163.65402462 25.83020342 166.74092732 24.875 169.875 C22.53975218 167.61759377 20.68794927 165.5944239 18.875 162.875 C18.875 165.845 18.875 168.815 18.875 171.875 C33.30697164 177.21798404 45.57884544 178.23326509 60.875 176.875 C60.545 175.885 60.215 174.895 59.875 173.875 C58.555 173.875 57.235 173.875 55.875 173.875 C55.99689697 173.15957031 56.11879395 172.44414062 56.24438477 171.70703125 C57.14428461 166.3740359 58.00596539 161.04067998 58.77734375 155.6875 C61.88094969 134.90102241 66.90858828 114.70623054 72.21235657 94.38365173 C73.83478708 88.14765576 75.00304649 82.55160203 74.9375 76.0625 C74.92847656 74.90105469 74.91945313 73.73960937 74.91015625 72.54296875 C74.89855469 71.66253906 74.88695312 70.78210938 74.875 69.875 C76.525 70.205 78.175 70.535 79.875 70.875 C79.21243916 78.42528675 77.71665887 85.6423565 76.0390625 93.02734375 C75.61089009 94.9450341 75.18272356 96.86272577 74.75487328 98.78048801 C73.85814372 102.79265789 72.95292762 106.80292101 72.04901123 110.81347656 C67.66760831 129.9649228 67.66760831 129.9649228 63.9609375 149.25390625 C63.84319977 149.9300145 63.72546204 150.60612274 63.60415649 151.30271912 C62.87129356 155.88086363 62.78602062 160.2554339 62.875 164.875 C65.18582692 161.40875961 66.07464048 158.01588415 67.1171875 154.04296875 C67.32578903 153.26260254 67.53439056 152.48223633 67.74931335 151.67822266 C68.42369969 149.14155882 69.08788712 146.60239327 69.75 144.0625 C70.08848465 142.7728685 70.08848465 142.7728685 70.43380737 141.45718384 C74.46285565 126.06220565 78.09160064 110.67761528 79.61523438 94.80761719 C79.98868763 92.02918111 80.95772351 89.5189146 81.875 86.875 C82.29839259 85.17328747 82.69216683 83.46404205 83.0625 81.75 C83.24167969 80.92242187 83.42085938 80.09484375 83.60546875 79.2421875 C83.88273199 76.80709295 83.62656437 75.18832581 82.875 72.875 C83.6175 72.730625 84.36 72.58625 85.125 72.4375 C86.0325 72.251875 86.94 72.06625 87.875 71.875 C88.535 71.82085937 89.195 71.76671875 89.875 71.7109375 C92.16595542 70.99490956 92.16595542 70.99490956 93.359375 68.22265625 C93.77703125 67.13855469 94.1946875 66.05445313 94.625 64.9375 C95.05296875 63.85597656 95.4809375 62.77445313 95.921875 61.66015625 C96.98292715 59.05024426 96.98292715 59.05024426 96.875 56.875 C92.65961243 58.38049556 91.16218949 61.16817565 88.875 64.875 C87.30581508 66.44418492 85.73414841 66.15758943 83.5625 66.25 C80.06239611 66.20007776 79.2311627 66.18429919 76.5 63.8125 C74.875 60.875 74.875 60.875 73.5625 57.1875 C72.1610066 53.51897954 72.1610066 53.51897954 68.25 52.5 C66.579375 52.190625 66.579375 52.190625 64.875 51.875 C64.38 51.38 64.38 51.38 63.875 50.875 C61.8789693 50.59506887 59.87767542 50.35257675 57.875 50.125 C50.51628896 49.13629113 43.66440029 47.20563534 36.58984375 44.99609375 C33.67626157 44.1168108 30.86789428 43.39423507 27.875 42.875 Z M4.375 46.0625 C-6.6216349 50.31064814 -17.51593718 54.41610026 -29.4375 53.75 C-34.07051603 53.3645355 -34.07051603 53.3645355 -37.98828125 55.34375 C-39.27712398 57.21149904 -39.27712398 57.21149904 -40.23046875 59.18359375 C-41.125 60.875 -41.125 60.875 -43.5625 62.3125 C-47.34431845 63.14265527 -50.56648851 63.320289 -54.3125 62.25 C-56.92121014 60.27097852 -57.83914249 57.83247227 -59.125 54.875 C-59.455 54.875 -59.785 54.875 -60.125 54.875 C-60.021875 56.050625 -59.91875 57.22625 -59.8125 58.4375 C-59.75449219 59.09878906 -59.69648438 59.76007813 -59.63671875 60.44140625 C-58.92473557 63.82740258 -57.55010065 66.72296772 -56.125 69.875 C-54.92101562 70.00777344 -53.71703125 70.14054687 -52.4765625 70.27734375 C-50.90101915 70.4555302 -49.32549953 70.6339265 -47.75 70.8125 C-46.9559375 70.89951172 -46.161875 70.98652344 -45.34375 71.07617188 C-39.3515625 71.76171875 -39.3515625 71.76171875 -37.125 72.875 C-36.59708762 75.55318965 -36.20891 78.16928555 -35.875 80.875 C-35.62174364 82.7971332 -35.36633511 84.71898343 -35.109375 86.640625 C-34.88604492 88.31995117 -34.88604492 88.31995117 -34.65820312 90.03320312 C-34.04655914 94.44017646 -33.37865154 98.83683076 -32.703125 103.234375 C-29.97859694 121.07040826 -27.57681576 138.83012707 -26.10424805 156.81518555 C-25.264293 166.93591369 -23.96078734 176.88883768 -22.125 186.875 C-24.105 185.885 -26.085 184.895 -28.125 183.875 C-27.63 186.35 -27.63 186.35 -27.125 188.875 C-13.10121639 192.09357329 -0.99972895 190.78773908 11.875 183.875 C11.875 182.225 11.875 180.575 11.875 178.875 C10.555 179.865 9.235 180.855 7.875 181.875 C7.875 179.565 7.875 177.255 7.875 174.875 C7.545 174.875 7.215 174.875 6.875 174.875 C6.875 177.515 6.875 180.155 6.875 182.875 C5.555 182.875 4.235 182.875 2.875 182.875 C2.88587646 181.76326416 2.89675293 180.65152832 2.90795898 179.50610352 C3.02200298 161.4382432 2.53095209 143.38291572 2.07543945 125.32250977 C1.95921174 120.71047108 1.84856827 116.09831723 1.73943424 111.48610592 C1.65348096 107.8835085 1.56431516 104.28099576 1.47424126 100.67849922 C1.43215179 98.97833339 1.39107989 97.27814199 1.3511219 95.57792473 C1.12375983 85.97726459 0.74321011 76.44306902 -0.125 66.875 C2.12109375 66.15885417 4.3671875 65.44270833 6.61328125 64.7265625 C9.10224528 63.88668189 9.10224528 63.88668189 11.875 61.875 C12.28928346 59.94423522 12.28928346 59.94423522 12.16796875 57.7421875 C12.15830078 56.93652344 12.14863281 56.13085938 12.13867188 55.30078125 C12.11353516 54.45902344 12.08839844 53.61726563 12.0625 52.75 C12.04896484 51.90050781 12.03542969 51.05101562 12.02148438 50.17578125 C11.98608219 48.07525163 11.93227401 45.97504707 11.875 43.875 C9.04686543 43.875 6.99352032 44.98798093 4.375 46.0625 Z M-61.125 52.875 C-60.125 54.875 -60.125 54.875 -60.125 54.875 Z M151.875 53.875 C150.225 55.855 148.575 57.835 146.875 59.875 C147.41125 60.143125 147.9475 60.41125 148.5 60.6875 C149.28375 61.079375 150.0675 61.47125 150.875 61.875 C151.885625 62.32875 152.89625 62.7825 153.9375 63.25 C156.97127517 64.92825861 158.33551209 65.79602417 159.875 68.875 C160.5601676 73.96481644 159.61371898 77.70106861 157.23046875 82.140625 C154.93515149 85.07757273 152.38396225 85.79531931 148.875 86.875 C149.65101563 87.7 150.42703125 88.525 151.2265625 89.375 C154.12338247 92.87320061 155.24911111 96.49950859 156.25 100.875 C156.44424561 101.67099609 156.63849121 102.46699219 156.83862305 103.28710938 C157.27773661 105.10105249 157.70875768 106.91696654 158.13330078 108.734375 C158.81988989 111.64164368 159.53363821 114.54114833 160.25701904 117.43945312 C160.91567551 120.08821715 161.56148512 122.7400147 162.20465088 125.39257812 C162.67678036 127.33098865 163.15835094 129.26709192 163.64013672 131.203125 C165.38802582 138.56347532 166.32204285 145.30935976 165.875 152.875 C163.565 152.215 161.255 151.555 158.875 150.875 C156.32708967 153.42291033 155.59926625 155.4239371 155.4375 158.9375 C155.48128112 162.83283391 155.48128112 162.83283391 157.6875 164.875 C159.92886471 166.08287988 159.92886471 166.08287988 162.875 165.875 C162.545 167.525 162.215 169.175 161.875 170.875 C157.99952513 171.32563661 156.32199813 171.18293205 153.0625 168.9375 C150.21844648 164.95582507 149.98993224 161.67080911 149.875 156.875 C142.00370647 162.27245842 138.24649365 170.86767549 135.875 179.875 C133.14874488 194.59091472 132.24756016 210.0565625 138.875 223.875 C139.21273438 224.61363281 139.55046875 225.35226562 139.8984375 226.11328125 C144.11182341 234.04699726 152.09873496 237.62652923 160.35009766 240.27514648 C164.94023793 241.36564877 169.49140599 241.31530451 174.1875 241.25 C175.19627197 241.24419922 176.20504395 241.23839844 177.24438477 241.23242188 C184.49108437 241.10626026 191.01604061 240.35307565 197.875 237.875 C198.143125 236.92625 198.41125 235.9775 198.6875 235 C198.87183594 234.3709375 199.05617188 233.741875 199.24609375 233.09375 C199.70447345 231.47660919 200.12974842 229.84997679 200.53515625 228.21875 C200.77105469 227.3215625 201.00695312 226.424375 201.25 225.5 C201.46398437 224.64664063 201.67796875 223.79328125 201.8984375 222.9140625 C202.875 220.875 202.875 220.875 204.9765625 220.0859375 C205.60304688 220.01632812 206.22953125 219.94671875 206.875 219.875 C206.730625 220.52726563 206.58625 221.17953125 206.4375 221.8515625 C204.30544194 230.3904267 204.30544194 230.3904267 206.3125 238.625 C209.9659889 241.83294147 213.10566499 242.10348992 217.875 242.875 C217.545 239.575 217.215 236.275 216.875 232.875 C215.225 232.545 213.575 232.215 211.875 231.875 C210.27530924 225.38882217 211.8581627 221.32210927 214.3125 215.25 C218.36657496 204.39157832 219.85010373 196.10880489 215.375 185.0625 C214.56462917 183.32245376 213.73959447 181.58874975 212.875 179.875 C215.185 179.875 217.495 179.875 219.875 179.875 C220.52857278 181.10006898 221.17248233 182.33029516 221.8125 183.5625 C222.17214844 184.24699219 222.53179687 184.93148437 222.90234375 185.63671875 C227.00222061 195.07137513 225.68295962 207.10656613 222.53125 216.60546875 C221.68981531 219.12167933 221.68981531 219.12167933 221.875 222.875 C222.535 223.205 223.195 223.535 223.875 223.875 C223.84019531 224.86242187 223.80539062 225.84984375 223.76953125 226.8671875 C223.72892578 228.78917969 223.72892578 228.78917969 223.6875 230.75 C223.65269531 232.02617187 223.61789062 233.30234375 223.58203125 234.6171875 C223.72705078 236.22980469 223.72705078 236.22980469 223.875 237.875 C225.36 238.865 225.36 238.865 226.875 239.875 C229.3339305 236.48337172 231.07324241 233.55407713 232.375 229.5625 C232.87 228.345625 233.365 227.12875 233.875 225.875 C235.96875 225.14453125 235.96875 225.14453125 237.875 224.875 C238.205 225.865 238.535 226.855 238.875 227.875 C242.50460076 230.84702012 242.50460076 230.84702012 246.875 231.875 C248.08685923 228.23942231 247.46760392 227.23716382 245.875 223.875 C245.545 223.545 245.215 223.215 244.875 222.875 C244.68204666 220.92224428 244.55082559 218.96333293 244.4453125 217.00390625 C244.37183594 215.78896484 244.29835938 214.57402344 244.22265625 213.32226562 C244.07625235 210.76790279 243.93546383 208.2132108 243.80078125 205.65820312 C243.17765885 195.60903417 241.89720953 187.07551475 236.125 178.625 C235.49078125 177.67109375 234.8565625 176.7171875 234.203125 175.734375 C229.25820099 169.66107907 223.22288226 165.59091262 216.5 161.6875 C215.44425781 161.05038086 215.44425781 161.05038086 214.3671875 160.40039062 C209.90635797 157.78331636 205.63853233 155.99720543 200.63818359 154.6550293 C200.05633301 154.39761963 199.47448242 154.14020996 198.875 153.875 C198.545 152.885 198.215 151.895 197.875 150.875 C199.5765625 150.689375 199.5765625 150.689375 201.3125 150.5 C203.0759375 150.190625 203.0759375 150.190625 204.875 149.875 C205.205 149.215 205.535 148.555 205.875 147.875 C203.64947742 146.72158302 201.42004031 145.57718841 199.1875 144.4375 C198.24874023 143.94926758 198.24874023 143.94926758 197.29101562 143.45117188 C193.83786361 141.69747687 190.72306481 140.39739503 186.875 139.875 C186.545 141.855 186.215 143.835 185.875 145.875 C182.703125 145.93359375 182.703125 145.93359375 178.875 144.875 C176.55733364 142.18468622 175.14093995 139.13111234 173.625 135.9375 C173.20476562 135.11958984 172.78453125 134.30167969 172.3515625 133.45898438 C168.07619891 124.90153492 165.45270944 116.51239586 165.0625 106.9375 C165.01005127 105.76973022 165.01005127 105.76973022 164.95654297 104.57836914 C164.45979419 89.53063032 169.36963276 80.31560355 179.12866211 69.30322266 C181.31274606 66.82700009 182.81858012 65.04425963 183.875 61.875 C183.37613281 62.10316406 182.87726563 62.33132812 182.36328125 62.56640625 C175.52184802 65.30543607 169.07683466 65.34895062 161.875 63.875 C158.23046878 62.00417472 156.12046749 60.29666474 153.875 56.875 C153.215 55.885 152.555 54.895 151.875 53.875 Z M4.875 68.875 C5.205 81.085 5.535 93.295 5.875 105.875 C6.205 105.875 6.535 105.875 6.875 105.875 C6.92450925 101.24855096 6.96077116 96.62225682 6.98486328 91.99560547 C6.99490887 90.42233595 7.00854781 88.84908504 7.02587891 87.27587891 C7.05019096 85.01199748 7.06149747 82.74836334 7.0703125 80.484375 C7.08063507 79.78318542 7.09095764 79.08199585 7.10159302 78.35955811 C7.10250579 74.36930197 6.72094271 72.56688542 4.875 68.875 Z M143.75 69.375 C142.66332031 69.79265625 142.66332031 69.79265625 141.5546875 70.21875 C141.00039063 70.4353125 140.44609375 70.651875 139.875 70.875 C139.875 71.205 139.875 71.535 139.875 71.875 C142.845 71.875 145.815 71.875 148.875 71.875 C149.205 72.535 149.535 73.195 149.875 73.875 C148.875 75.875 148.875 75.875 146.80859375 76.7265625 C145.98488281 76.98179687 145.16117187 77.23703125 144.3125 77.5 C143.48621094 77.76039063 142.65992188 78.02078125 141.80859375 78.2890625 C141.17050781 78.48242188 140.53242188 78.67578125 139.875 78.875 C139.875 79.205 139.875 79.535 139.875 79.875 C145.63976447 80.33438518 145.63976447 80.33438518 150.8125 78.125 C153.41861232 75.40229488 153.41861232 75.40229488 153.875 71.875 C152.14562171 69.56221883 152.14562171 69.56221883 149.875 67.875 C147.50956284 67.875 145.95195736 68.52262941 143.75 69.375 Z M-111.125 73.875 C-109.06347819 78.67824116 -105.71930987 81.47436962 -101.125 83.875 C-97.55146819 83.81736239 -95.29482793 83.45991397 -92.125 81.875 C-92.63231629 77.47825886 -95.24414055 75.03691891 -98.125 71.875 C-102.83177684 69.52161158 -107.40408212 70.30291884 -111.125 73.875 Z M-166.125 79.875 C-167.24035535 82.63134184 -167.25570521 83.52479827 -166.19921875 86.35546875 C-165.51279297 87.69544922 -165.51279297 87.69544922 -164.8125 89.0625 C-158.94650159 101.34850779 -158.75047545 112.97909677 -163.125 125.875 C-166.63092786 134.05549833 -170.11784706 141.4964668 -178.0625 146.0625 C-179.31353516 146.79533203 -179.31353516 146.79533203 -180.58984375 147.54296875 C-184.74330315 149.72529488 -187.29957563 150.91430592 -192.0625 150.6875 C-194.18948674 150.80270081 -194.18948674 150.80270081 -196.125 151.875 C-207.01215312 167.57043813 -207.38878221 187.41124525 -207.16210938 205.66650391 C-207.13844005 207.71296663 -207.12323177 209.75955683 -207.11914062 211.80615234 C-207.05858468 229.16451389 -205.14427863 249.27691782 -193.125 262.875 C-189.94569226 265.83279859 -186.50363386 268.07420938 -182.7578125 270.25 C-176.70233505 273.9031405 -173.90929777 276.98112224 -172.125 283.875 C-170.90158196 289.84017124 -169.98320813 295.84803839 -169.125 301.875 C-166.65699953 300.72326645 -165.07716435 299.82716435 -163.125 297.875 C-159.68334679 298.22799007 -158.05627462 298.92081692 -155.125 300.875 C-154.94437012 300.1951001 -154.76374023 299.5152002 -154.57763672 298.81469727 C-153.73546813 295.68409648 -152.86795537 292.56104527 -152 289.4375 C-151.57460937 287.83358398 -151.57460937 287.83358398 -151.140625 286.19726562 C-148.91619648 278.29087293 -146.1283706 270.94735418 -139.4375 265.8125 C-137.125 264.875 -137.125 264.875 -134.125 264.875 C-134.455 267.845 -134.785 270.815 -135.125 273.875 C-115.32080532 271.64849291 -99.17531946 265.18453432 -86.1875 249.4375 C-77.25436225 237.20531378 -76.45743366 222.17343979 -78.60546875 207.61962891 C-81.52544473 191.37145045 -85.97963553 175.54518225 -91.125 159.875 C-95.33836938 163.43727489 -99.43002081 167.08036113 -103.4375 170.875 C-109.40427837 176.3165049 -115.85041903 181.86489229 -124.125 182.875 C-124.785 182.545 -125.445 182.215 -126.125 181.875 C-126.125 180.885 -126.125 179.895 -126.125 178.875 C-124.2109375 177.25390625 -124.2109375 177.25390625 -121.5 175.4375 C-116.63728107 172.03549378 -112.06813981 168.42489505 -107.5625 164.5625 C-106.65153564 163.78918335 -106.65153564 163.78918335 -105.72216797 163.00024414 C-103.10993678 160.74751804 -101.049463 158.7616945 -99.125 155.875 C-100.115 154.885 -101.105 153.895 -102.125 152.875 C-105.89731622 153.96698627 -109.23333074 155.41867046 -112.6875 157.25 C-121.68183741 161.82155796 -131.04695653 164.42000932 -141.125 164.875 C-141.125 163.555 -141.125 162.235 -141.125 160.875 C-140.52816406 160.75125 -139.93132812 160.6275 -139.31640625 160.5 C-124.48248489 156.97336194 -106.181371 148.9315844 -95.75 137.4375 C-92.29492456 134.06468826 -89.81185823 133.74882103 -85.125 132.875 C-83.70922523 131.69075674 -83.70922523 131.69075674 -84.0625 128.3125 C-84.083125 127.178125 -84.10375 126.04375 -84.125 124.875 C-84.67736328 124.96587891 -85.22972656 125.05675781 -85.79882812 125.15039062 C-118.71703381 130.4685763 -118.71703381 130.4685763 -129.20703125 123.96875 C-131.19135315 122.62731169 -131.19135315 122.62731169 -134.125 122.875 C-133 120.4375 -133 120.4375 -131.125 117.875 C-127.9375 117.0625 -127.9375 117.0625 -125.125 116.875 C-124.795 117.865 -124.465 118.855 -124.125 119.875 C-121.155 120.205 -118.185 120.535 -115.125 120.875 C-115.640625 119.6375 -116.15625 118.4 -116.6875 117.125 C-118.68307594 111.27814899 -117.97084357 105.89781386 -117.125 99.875 C-118.445 99.875 -119.765 99.875 -121.125 99.875 C-117.65505564 95.9713126 -113.57275994 93.50911025 -109.125 90.875 C-111.68588491 85.16132753 -115.90047206 82.78782353 -121.5234375 80.48046875 C-130.2718961 77.29837741 -137.6156287 75.66522971 -146.875 75.5625 C-147.7309375 75.53349609 -148.586875 75.50449219 -149.46875 75.47460938 C-155.48771034 75.41533174 -161.1519635 76.21781131 -166.125 79.875 Z M86.875 77.875 C87.875 79.875 87.875 79.875 87.875 79.875 Z M-195.125 82.875 C-196.75006895 85.29061132 -196.75006895 85.29061132 -198 88.0625 C-198.50144531 89.11179687 -199.00289062 90.16109375 -199.51953125 91.2421875 C-201.64397548 96.04932409 -203.62950244 100.91176375 -205.50146484 105.82299805 C-208.51682603 113.48786913 -212.6113257 118.87613368 -219.125 123.875 C-218.795 124.865 -218.465 125.855 -218.125 126.875 C-214.66451343 128.24719727 -211.20312484 129.36373087 -207.64648438 130.44921875 C-200.25736756 132.84603548 -196.09895763 136.06250121 -192.125 142.875 C-189.1706719 144.24802795 -189.1706719 144.24802795 -186.6875 142.69140625 C-178.43410237 136.8410558 -173.28471468 128.35414403 -170.125 118.875 C-168.7821565 106.06043627 -172.21008937 94.04822672 -179.6953125 83.609375 C-182.62514767 79.85944646 -182.62514767 79.85944646 -187 78.4375 C-190.89056156 78.98217862 -192.26120543 80.22734087 -195.125 82.875 Z M-107.6015625 99.8125 C-110.65832165 103.95088162 -111.66888689 107.76246328 -111.125 112.875 C-109.63941371 115.42239957 -108.63782984 116.64989947 -105.91796875 117.84375 C-96.09377744 119.84688346 -86.94484922 117.41397104 -78.375 112.3125 C-75.79655338 110.60287779 -74.92182624 109.57023936 -73.125 106.875 C-72.37117533 102.27316333 -72.72530156 98.7051429 -74.75 94.5 C-78.06980127 90.83074596 -80.96678736 89.02404783 -85.953125 88.6796875 C-94.61550204 89.2130851 -101.73481832 93.67345968 -107.6015625 99.8125 Z M213.8125 107.875 C212.71228516 108.431875 212.71228516 108.431875 211.58984375 109 C210.74099609 109.433125 210.74099609 109.433125 209.875 109.875 C209.875 110.535 209.875 111.195 209.875 111.875 C215.155 113.195 220.435 114.515 225.875 115.875 C223.94254256 110.07762767 223.57433616 109.00789077 218.875 105.875 C217.03068588 105.875 215.42484601 107.0560306 213.8125 107.875 Z M241.25 118.75 C240.30253906 119.55050781 240.30253906 119.55050781 239.3359375 120.3671875 C237.64304827 121.76447988 237.64304827 121.76447988 237.875 123.875 C239.68192646 125.1923651 241.5481705 126.42881102 243.4375 127.625 C248.27196667 130.76025176 252.61619406 134.00335824 256.875 137.875 C260.01598394 134.07652221 260.01598394 134.07652221 260.6953125 129.42578125 C258.90308185 123.85279737 254.4647715 119.83486204 249.5625 116.875 C245.40399474 115.32764921 244.49737482 115.95699038 241.25 118.75 Z M86.875 118.875 C86.400625 120.07125 85.92625 121.2675 85.4375 122.5 C85.17066406 123.17289062 84.90382813 123.84578125 84.62890625 124.5390625 C83.70022588 127.41652811 83.02759076 129.83883522 82.875 132.875 C84.45620459 135.4856749 84.45620459 135.4856749 86.875 137.75 C87.70902344 138.61238281 88.54304688 139.47476563 89.40234375 140.36328125 C90.21832031 141.19214844 91.03429687 142.02101562 91.875 142.875 C93.0742072 144.21881015 94.26289957 145.5721292 95.4375 146.9375 C96.28248047 147.89849609 96.28248047 147.89849609 97.14453125 148.87890625 C98.34777963 150.26685189 99.53140077 151.67195768 100.69921875 153.08984375 C108.2422648 162.04051705 117.25001269 168.08107948 127.875 172.875 C131.25988325 168.66953899 133.50682909 163.9490136 135.9609375 159.1640625 C137.99512657 155.66857843 140.21191026 152.90415018 142.875 149.875 C141.905625 149.69066406 140.93625 149.50632812 139.9375 149.31640625 C124.0840293 146.00436647 111.99896767 138.49254653 99.875 127.875 C97.86137348 126.17890689 95.84062962 124.49122387 93.8125 122.8125 C92.91402344 122.05839844 92.01554687 121.30429688 91.08984375 120.52734375 C89.06837366 118.67567919 89.06837366 118.67567919 86.875 118.875 Z M205.875 118.875 C203.76793709 122.29897723 203.78819287 124.91442467 203.875 128.875 C204.73222656 129.05675781 205.58945312 129.23851562 206.47265625 129.42578125 C212.57900831 130.76821491 218.24879821 132.12732005 223.875 134.875 C225.195 131.905 226.515 128.935 227.875 125.875 C226.555 125.215 225.235 124.555 223.875 123.875 C223.441875 123.38 223.00875 122.885 222.5625 122.375 C217.97349976 118.29588867 211.64009316 118.67271603 205.875 118.875 Z M233.875 129.875 C231.0355948 133.54952438 229.875 135.14386581 229.875 139.875 C231.6803785 141.68573321 231.6803785 141.68573321 234.0625 143.25 C238.02471189 146.1435396 240.92416557 148.97228349 243.875 152.875 C247.31095166 151.34791037 249.99412454 149.27572955 252.875 146.875 C251.48854775 142.49102248 249.50482612 140.25364888 246.0625 137.25 C245.21042969 136.49460938 244.35835938 135.73921875 243.48046875 134.9609375 C239.15164559 131.26069358 239.15164559 131.26069358 233.875 129.875 Z M204.875 135.875 C207.82767206 139.10887892 210.75422748 141.09745249 214.625 143.125 C215.60984375 143.64578125 216.5946875 144.1665625 217.609375 144.703125 C218.35703125 145.08984375 219.1046875 145.4765625 219.875 145.875 C220.205 144.555 220.535 143.235 220.875 141.875 C216.79976951 138.45180639 212.30437249 136.03006633 206.9375 135.6875 C206.256875 135.749375 205.57625 135.81125 204.875 135.875 Z M-57.42578125 141.8671875 C-58.05856491 142.17318878 -58.69134857 142.47919006 -59.3433075 142.79446411 C-61.37559348 143.77781972 -63.40653938 144.76391044 -65.4375 145.75 C-66.79614031 146.40772491 -68.15486325 147.06527915 -69.51367188 147.72265625 C-76.83807365 151.26071705 -76.83807365 151.26071705 -84.125 154.875 C-83.09637215 160.32067686 -81.87885216 164.99317117 -79.125 169.875 C-75.37918099 169.34904596 -73.36252158 168.6006455 -70.625 166 C-66.94601928 162.61589942 -63.19422577 159.3486746 -59.375 156.125 C-58.82005859 155.65336426 -58.26511719 155.18172852 -57.69335938 154.69580078 C-55.42721863 152.77697968 -53.22531177 150.93899761 -50.71875 149.33984375 C-48.87400417 147.97892006 -48.87400417 147.97892006 -48.953125 145.61328125 C-49.09234375 144.81277344 -49.2315625 144.01226562 -49.375 143.1875 C-49.50390625 142.37925781 -49.6328125 141.57101563 -49.765625 140.73828125 C-49.88421875 140.12339844 -50.0028125 139.50851563 -50.125 138.875 C-52.49629142 138.875 -55.39484929 140.88315475 -57.42578125 141.8671875 Z M-92.8125 144.125 C-93.245625 144.7025 -93.67875 145.28 -94.125 145.875 C-93.89742269 148.03799211 -93.89742269 148.03799211 -93.125 149.875 C-90.15434491 149.53272428 -90.15434491 149.53272428 -87.125 148.875 C-86.795 148.215 -86.465 147.555 -86.125 146.875 C-87.115 146.875 -88.105 146.875 -89.125 146.875 C-89.125 145.555 -89.125 144.235 -89.125 142.875 C-91.2071538 142.67659082 -91.2071538 142.67659082 -92.8125 144.125 Z M226.875 145.875 C225.83114304 148.52904064 225.83114304 148.52904064 225.875 151.875 C228.23197121 155.6951916 231.16062292 158.39874861 234.875 160.875 C237.00316413 160.71811576 237.00316413 160.71811576 238.875 159.875 C239.205 159.215 239.535 158.555 239.875 157.875 C235.91674791 153.05014834 232.28339975 149.04089254 226.875 145.875 Z M264.875 149.875 C266.35132266 154.55002176 268.12565854 159.06812719 269.97265625 163.60546875 C270.66260953 165.34080578 271.28445532 167.10336597 271.875 168.875 C272.865 168.875 273.855 168.875 274.875 168.875 C276.61428751 167.0634574 276.61428751 167.0634574 278.125 164.6875 C278.93710937 163.52154297 278.93710937 163.52154297 279.765625 162.33203125 C281.06039655 159.92551161 281.06039655 159.92551161 280.84375 157.25 C279.55245908 154.08425452 278.19045681 153.49093032 275.125 152.0625 C274.26390625 151.64355469 273.4028125 151.22460938 272.515625 150.79296875 C269.78390464 149.84333223 267.74291497 149.69446578 264.875 149.875 Z M254.1484375 153.40625 C253.20871094 154.38078125 253.20871094 154.38078125 252.25 155.375 C251.13625 156.53 250.0225 157.685 248.875 158.875 C251.185 164.155 253.495 169.435 255.875 174.875 C259.175 173.555 262.475 172.235 265.875 170.875 C265.13334852 167.16674258 264.3745073 164.25942335 263 160.8125 C262.67257812 159.97589844 262.34515625 159.13929688 262.0078125 158.27734375 C260.85891239 155.84088317 259.65661155 153.89447068 257.875 151.875 C255.73975907 151.65382569 255.73975907 151.65382569 254.1484375 153.40625 Z M242.875 164.875 C241.90752229 167.987514 241.61797336 169.35516155 243.08984375 172.33203125 C243.65832031 173.10933594 244.22679687 173.88664063 244.8125 174.6875 C245.37839844 175.47769531 245.94429688 176.26789063 246.52734375 177.08203125 C246.97207031 177.67371094 247.41679687 178.26539063 247.875 178.875 C248.535 178.545 249.195 178.215 249.875 177.875 C249.35974397 172.59362571 247.62022883 169.30278844 244.875 164.875 C244.215 164.875 243.555 164.875 242.875 164.875 Z M61.875 166.875 C62.875 168.875 62.875 168.875 62.875 168.875 Z M281.875 172.875 C282.32875 174.1125 282.7825 175.35 283.25 176.625 C285.1475842 182.26379287 286.03007005 188.00025178 286.875 193.875 C288.525 193.545 290.175 193.215 291.875 192.875 C294.39887379 186.84336941 295.91410102 181.30203991 293.875 174.875 C292.5881406 173.08781804 292.5881406 173.08781804 290.875 171.875 C287.44297729 171.58899811 285.15070125 171.78309958 281.875 172.875 Z M264.1875 178.875 C262.104375 179.865 260.02125 180.855 257.875 181.875 C258.865 186.495 259.855 191.115 260.875 195.875 C262.525 195.545 264.175 195.215 265.875 194.875 C268.31005237 194.65801513 270.74801384 194.47209255 273.1875 194.3125 C275.06888672 194.18681641 275.06888672 194.18681641 276.98828125 194.05859375 C277.94089844 193.99800781 278.89351562 193.93742187 279.875 193.875 C280.88304515 190.04854291 280.82682071 187.53231343 279.6875 183.75 C279.32591797 182.47769531 279.32591797 182.47769531 278.95703125 181.1796875 C277.67369141 178.44621996 276.47596105 177.37385891 273.875 175.875 C270.01025139 175.875 267.67005542 177.21992416 264.1875 178.875 Z M251.875 184.875 C250.77601298 188.17196105 251.00375556 189.27994903 251.8125 192.5625 C252.00714844 193.37074219 252.20179688 194.17898438 252.40234375 195.01171875 C252.55832031 195.62660156 252.71429688 196.24148438 252.875 196.875 C253.535 196.875 254.195 196.875 254.875 196.875 C254.35019999 190.58591518 254.35019999 190.58591518 251.875 184.875 Z M271.875 200.875 C271.38 208.3 271.38 208.3 270.875 215.875 C275.18867645 216.95341911 279.74698412 217.93900794 283.875 215.875 C284.18611883 209.96374214 283.83964909 206.06313591 280.875 200.875 C277.55441619 199.10402197 275.78075965 200.09384807 271.875 200.875 Z M287.875 200.875 C288.32280506 203.52302056 288.78264931 206.1679242 289.25 208.8125 C289.37632812 209.56724609 289.50265625 210.32199219 289.6328125 211.09960938 C289.98047563 213.03783135 290.42143504 214.95879205 290.875 216.875 C291.535 217.205 292.195 217.535 292.875 217.875 C295.63403196 215.63328653 296.77969787 214.51488574 297.3125 210.9375 C296.82249421 207.50745944 295.94477055 205.63469406 293.875 202.875 C291.05990007 200.5976499 291.05990007 200.5976499 287.875 200.875 Z M260.875 202.875 C259.95807039 205.62578884 259.76613917 207.23448913 259.8125 210.0625 C259.833125 211.320625 259.85375 212.57875 259.875 213.875 C261.195 214.205 262.515 214.535 263.875 214.875 C265.46638085 210.69762526 266.08778058 207.34339215 265.875 202.875 C264.225 202.875 262.575 202.875 260.875 202.875 Z M252.875 204.875 C252.875 207.185 252.875 209.495 252.875 211.875 C253.205 211.875 253.535 211.875 253.875 211.875 C253.875 209.565 253.875 207.255 253.875 204.875 C253.545 204.875 253.215 204.875 252.875 204.875 Z M190.875 248.875 C190.875 250.855 190.875 252.835 190.875 254.875 C191.535 254.875 192.195 254.875 192.875 254.875 C192.545 252.895 192.215 250.915 191.875 248.875 C191.545 248.875 191.215 248.875 190.875 248.875 Z M174.75 249.375 C173.83992188 249.4678125 172.92984375 249.560625 171.9921875 249.65625 C170.94417969 249.76453125 170.94417969 249.76453125 169.875 249.875 C169.10633025 255.86650617 168.4322772 261.86000153 167.875 267.875 C167.80651855 268.61024902 167.73803711 269.34549805 167.66748047 270.10302734 C166.83798865 277.962548 166.83798865 277.962548 169.3359375 285.171875 C171.1520783 286.84241802 172.56566823 288.00467368 174.875 288.875 C179.23509348 287.42163551 181.51437376 284.77476912 183.875 280.875 C184.61695249 277.78774693 184.54378611 274.90738711 184.375 271.75 C184.35308594 270.92266357 184.33117187 270.09532715 184.30859375 269.24291992 C184.06323407 262.36018075 183.23322618 255.62974985 181.875 248.875 C179.47277717 248.875 177.1398403 249.12988817 174.75 249.375 Z M-223.125 255.875 C-223.455 257.525 -223.785 259.175 -224.125 260.875 C-222.145 261.865 -222.145 261.865 -220.125 262.875 C-220.125 260.895 -220.125 258.915 -220.125 256.875 C-221.115 256.545 -222.105 256.215 -223.125 255.875 Z M162.875 255.875 C163.875 258.875 163.875 258.875 163.875 258.875 Z M191.875 259.875 C191.875 262.515 191.875 265.155 191.875 267.875 C192.205 267.875 192.535 267.875 192.875 267.875 C192.875 265.235 192.875 262.595 192.875 259.875 C192.545 259.875 192.215 259.875 191.875 259.875 Z M160.875 266.875 C161.875 270.875 161.875 270.875 161.875 270.875 Z M-100.75 276.375 C-101.36101562 276.70886719 -101.97203125 277.04273438 -102.6015625 277.38671875 C-104.11141801 278.21242098 -105.61847848 279.04323037 -107.125 279.875 C-106.37605469 280.62136719 -105.62710938 281.36773437 -104.85546875 282.13671875 C-103.28474689 283.7119348 -101.72064179 285.29394427 -100.17578125 286.89453125 C-99.60214844 287.48621094 -99.02851563 288.07789063 -98.4375 288.6875 C-97.85613281 289.29207031 -97.27476562 289.89664062 -96.67578125 290.51953125 C-95.21730108 292.09436724 -95.21730108 292.09436724 -93.125 291.875 C-92.465 289.895 -91.805 287.915 -91.125 285.875 C-90.135 285.875 -89.145 285.875 -88.125 285.875 C-88.71604765 281.02840923 -90.10444157 277.26751833 -92.125 272.875 C-95.38414119 272.875 -97.95830149 274.83002155 -100.75 276.375 Z M191.875 278.875 C191.8234375 279.45507812 191.771875 280.03515625 191.71875 280.6328125 C191.18458003 284.31130117 190.76984259 286.98788824 188.06640625 289.66796875 C186.68959566 290.6506831 185.28374252 291.59441821 183.84765625 292.48828125 C181.65722081 294.0280923 180.37286024 295.67281676 178.875 297.875 C180.85991642 297.60823796 180.85991642 297.60823796 182.875 296.875 C183.205 295.885 183.535 294.895 183.875 293.875 C185.525 293.875 187.175 293.875 188.875 293.875 C188.875 298.165 188.875 302.455 188.875 306.875 C193.07942913 302.67057087 194.07565395 299.73687106 194.875 293.875 C196.45867747 294.01704741 198.04193318 294.16380153 199.625 294.3125 C200.50671875 294.39371094 201.3884375 294.47492188 202.296875 294.55859375 C204.56850452 294.83738465 206.67351823 295.26290577 208.875 295.875 C206.02011632 291.47372099 203.54262836 290.06144296 198.6796875 288.6484375 C196.875 287.875 196.875 287.875 194.875 284.875 C194.17335358 282.88700182 193.50127128 280.88801483 192.875 278.875 C192.545 278.875 192.215 278.875 191.875 278.875 Z M157.875 282.875 C157.75125 283.9475 157.6275 285.02 157.5 286.125 C156.74510759 288.79121575 156.26471014 289.64996661 153.83203125 291.0546875 C152.10925227 291.70106349 150.37376372 292.31427852 148.62890625 292.8984375 C144.43171416 294.38680349 140.70056692 296.62031805 136.875 298.875 C136.875 299.205 136.875 299.535 136.875 299.875 C140.835 299.545 144.795 299.215 148.875 298.875 C148.545 300.855 148.215 302.835 147.875 304.875 C151.94999231 303.45503898 155.00420655 301.47265179 158.4375 298.875 C161.49837543 296.56554614 164.3739967 294.45662973 167.875 292.875 C164.62102492 290.61614676 164.62102492 290.61614676 160.875 289.875 C160.545 287.565 160.215 285.255 159.875 282.875 C159.215 282.875 158.555 282.875 157.875 282.875 Z " fill="#FFFFFF" transform="translate(256.125,108.125)"/>
<path d="M0 0 C1.9375 0.6875 1.9375 0.6875 2.9375 2.6875 C5.77299572 19.60356746 6.33595258 36.90180718 7.04995728 54.00653076 C7.64047135 68.05965307 8.6052024 82.03109421 9.97265625 96.02978516 C10.57765274 102.28167542 11.11333954 108.40523276 10.9375 114.6875 C8.9575 115.1825 8.9575 115.1825 6.9375 115.6875 C5.18298716 110.2297771 4.4161936 105.04978781 3.9375 99.34765625 C3.85628906 98.43959732 3.77507812 97.53153839 3.69140625 96.59596252 C2.6806667 85.11331735 1.80784043 73.61896148 0.9375 62.125 C0.7614313 59.82136131 0.58524224 57.51773182 0.40893555 55.21411133 C-0.59807391 42.01851889 -1.58812182 28.82180661 -2.46679688 15.61694336 C-2.80935182 10.59543705 -3.26527017 5.65805466 -4.0625 0.6875 C-2.0625 -0.3125 -2.0625 -0.3125 0 0 Z " fill="#FFFFFF" transform="translate(234.0625,179.3125)"/>
<path d="M0 0 C1.67542976 0.28604898 3.34385343 0.61781233 5 1 C5.8020201 5.28493243 6.16790476 9.40523866 6.28125 13.76123047 C6.29929688 14.40940231 6.31734375 15.05757416 6.3359375 15.72538757 C6.37433867 17.12482682 6.41081734 18.52431989 6.44555664 19.92385483 C6.50094291 22.1551739 6.56139429 24.38630796 6.62304688 26.61746216 C6.73133392 30.56660421 6.83514148 34.51584921 6.9375 38.46514893 C7.10046179 44.7485672 7.26751455 51.03186449 7.43969727 57.31503677 C7.49808703 59.48363972 7.55291316 61.65231097 7.60742188 63.8210144 C7.82554314 72.09738506 8.22527637 80.34366561 8.78242493 88.60437012 C9.03975082 92.62037935 9.16667166 96.60096509 9.1875 100.625 C9.20167969 101.89601563 9.21585938 103.16703125 9.23046875 104.4765625 C9.00064827 107.99008916 8.27201136 110.73198663 7 114 C6.01 113.67 5.02 113.34 4 113 C3.31836879 100.9046717 2.90125162 88.81342122 2.61862183 76.70333862 C2.26322146 61.56297374 1.7222621 46.43994325 1 31.3125 C0.95811554 30.42035797 0.91623108 29.52821594 0.87307739 28.60903931 C0.26543576 15.69622519 0.26543576 15.69622519 -0.9140625 2.82495117 C-0.94242188 2.22271729 -0.97078125 1.6204834 -1 1 C-0.67 0.67 -0.34 0.34 0 0 Z " fill="#FFFFFF" transform="translate(246,177)"/>
<path d="M0 0 C2.475 0.495 2.475 0.495 5 1 C4.42853242 9.2033465 2.85849502 17.08840584 1.12890625 25.1171875 C0.84312357 26.46408843 0.55789178 27.81110634 0.2731781 29.15823364 C-0.47283256 32.68246996 -1.22472448 36.2054218 -1.97839355 39.72802734 C-3.18186013 45.35593752 -4.37787972 50.98542378 -5.57081795 56.61557388 C-5.98371702 58.55893488 -6.4003025 60.50151149 -6.81700134 62.44406128 C-9.25871314 73.92690775 -11.24884069 85.29369903 -12.03515625 97.01171875 C-12.2421875 99.2890625 -12.2421875 99.2890625 -13 103 C-15.0703125 104.5234375 -15.0703125 104.5234375 -17 105 C-18.2544393 99.57587514 -17.81401371 94.82676156 -17.125 89.375 C-16.99915527 88.37009521 -16.87331055 87.36519043 -16.74365234 86.32983398 C-14.42743333 69.43513191 -10.58189016 52.76530551 -7.06738281 36.08935547 C-5.66914513 29.44299954 -4.32639322 22.7860671 -3 16.125 C-2.70730225 14.66719116 -2.70730225 14.66719116 -2.40869141 13.17993164 C-1.5331858 8.79639603 -0.6995558 4.41594597 0 0 Z " fill="#FFFFFF" transform="translate(315,176)"/>
<path d="M0 0 C0.78375 0.04125 1.5675 0.0825 2.375 0.125 C3.69772653 3.83322826 3.05495729 6.49174019 2.15234375 10.26953125 C1.86407715 11.49124023 1.57581055 12.71294922 1.27880859 13.97167969 C0.95675049 15.2936307 0.63464649 16.61557053 0.3125 17.9375 C-0.01290928 19.30745057 -0.33760901 20.67756986 -0.66162109 22.04785156 C-2.09518785 28.06814018 -3.5778989 34.06901768 -5.25390625 40.02734375 C-10.71330577 59.46020633 -14.08971849 79.82833865 -15.2878418 99.99707031 C-15.625 102.125 -15.625 102.125 -17.625 105.125 C-18.285 105.125 -18.945 105.125 -19.625 105.125 C-20.70217711 100.26464777 -20.46413005 95.99128113 -19.76171875 91.1171875 C-19.65424316 90.33449493 -19.54676758 89.55180237 -19.43603516 88.74539185 C-19.07429179 86.16158743 -18.69511262 83.58079217 -18.3125 81 C-18.18372467 80.1121582 -18.05494934 79.22431641 -17.92227173 78.30957031 C-15.45824374 61.49941968 -11.92168922 45.00027437 -7.96557617 28.48388672 C-7.75231689 27.58958954 -7.53905762 26.69529236 -7.31933594 25.77389526 C-6.92195549 24.11649415 -6.51920332 22.46036625 -6.10961914 20.80593872 C-3.63740936 11.45859352 -3.63740936 11.45859352 -4.625 2.125 C-2.625 0.125 -2.625 0.125 0 0 Z " fill="#FFFFFF" transform="translate(325.625,176.875)"/>
<path d="M0 0 C0.99 0.33 1.98 0.66 3 1 C2.45484976 9.09024907 1.45072881 16.97364131 0.00390625 24.94921875 C-0.18969986 26.04611526 -0.38330597 27.14301178 -0.58277893 28.27314758 C-1.19590594 31.74552922 -1.81587694 35.21662999 -2.4375 38.6875 C-7.22663663 65.00395971 -7.22663663 65.00395971 -9.5625 91.625 C-9.78006965 96.81889667 -10.18424806 101.8627853 -11 107 C-13.50065533 104.49934467 -13.31029474 102.91665132 -13.38012695 99.49487305 C-13.33062468 76.00957799 -9.60292088 52.60570896 -5.65014648 29.50390625 C-4.2634431 21.24130671 -3.42062364 13.19967754 -3.3359375 4.82421875 C-3.16964844 3.42623047 -3.16964844 3.42623047 -3 2 C-2.01 1.34 -1.02 0.68 0 0 Z " fill="#FFFFFF" transform="translate(304,174)"/>
<path d="M0 0 C2.27645462 2.2005728 2.91657021 3.42989644 3.375 6.5625 C3 9 3 9 1.75 10.75 C-1.71970249 13.22835892 -5.40758052 13.1363059 -9.5625 13.125 C-10.51253906 13.12757812 -11.46257812 13.13015625 -12.44140625 13.1328125 C-15 13 -15 13 -18 12 C-18 11.34 -18 10.68 -18 10 C-17.21753906 9.79503906 -16.43507813 9.59007813 -15.62890625 9.37890625 C-14.61699219 9.10949219 -13.60507812 8.84007813 -12.5625 8.5625 C-11.55316406 8.29566406 -10.54382813 8.02882813 -9.50390625 7.75390625 C-7.08247999 7.24021923 -7.08247999 7.24021923 -6 6 C-13.04207705 6.7187807 -13.04207705 6.7187807 -20 8 C-19.02601734 4.49366243 -18.10913045 3.08928855 -15.25 0.75 C-9.71191433 -2.23204613 -5.77218427 -2.69368599 0 0 Z " fill="#FFFFFF" transform="translate(390,109)"/>
<path d="M0 0 C2.48143708 1.09899318 3.91354545 2.18103962 6 4 C6.33 4.99 6.66 5.98 7 7 C3.53837028 8.15387657 2.79997125 7.79998922 -0.5 6.5625 C-3.29353218 5.52423721 -4.97909181 5 -8 5 C-6.60974609 5.38091797 -6.60974609 5.38091797 -5.19140625 5.76953125 C-3.99386719 6.11371094 -2.79632813 6.45789063 -1.5625 6.8125 C-0.36753906 7.14894531 0.82742187 7.48539063 2.05859375 7.83203125 C3.51458984 8.41017578 3.51458984 8.41017578 5 9 C5.33 9.99 5.66 10.98 6 12 C-0.36829691 12.20728634 -6.00113461 12.29743781 -12 10 C-14 8 -14 8 -14.375 5.0625 C-14 2 -14 2 -12.28125 0.3046875 C-8.27927805 -1.98411152 -4.34442751 -1.0194011 0 0 Z " fill="#FFFFFF" transform="translate(169,117)"/>
<path d="M0 0 C1 1 1 1 1.5 3.5625 C0.76291928 8.62992998 -2.2507096 11.63607564 -6 15 C-9.28976808 16.09658936 -10.71303767 15.79953138 -14 15 C-13.83594462 8.28864336 -12.85033511 4.73203426 -8 0 C-5.11795733 -1.44102133 -3.08226581 -0.65580124 0 0 Z M-7 6 C-6 8 -6 8 -6 8 Z M-9 9 C-8 12 -8 12 -8 12 Z " fill="#FFFFFF" transform="translate(361,95)"/>
<path d="M0 0 C0.99 0.66 1.98 1.32 3 2 C2.79296875 4.32421875 2.79296875 4.32421875 2 7 C-2.02442852 10.06947938 -6.55360438 11.84774783 -11.5625 12.375 C-14 12 -14 12 -15 11 C-15.375 7.625 -15.375 7.625 -15 4 C-11.0185121 0.60402503 -5.10648312 -2.1130275 0 0 Z " fill="#FFFFFF" transform="translate(164,143)"/>
<path d="M0 0 C1.0625 1.875 1.0625 1.875 1 4 C-1.857687 8.04838991 -5.22544676 9.14740121 -10 10 C-12.4375 9.125 -12.4375 9.125 -14 8 C-14.25 5.1875 -14.25 5.1875 -14 2 C-9.98489969 -2.31251515 -5.04016189 -2.94009443 0 0 Z " fill="#FFFFFF" transform="translate(168,339)"/>
<path d="M0 0 C3.26049297 -0.60061713 4.5957506 -0.26595355 7.375 1.5625 C9 4 9 4 9.0625 7.5625 C8 11 8 11 5.4375 12.9375 C4.633125 13.288125 3.82875 13.63875 3 14 C-1.88081725 9.85130533 -1.88081725 9.85130533 -2.4375 5.875 C-2 3 -2 3 0 0 Z " fill="#FFFFFF" transform="translate(108,215)"/>
<path d="M0 0 C4.56 0.48 4.56 0.48 6.375 2.625 C7.24717908 5.93928051 6.64016848 8.67112389 6 12 C2.625 12.625 2.625 12.625 -1 13 C-3 11 -3 11 -3.3125 7.625 C-2.99258956 3.9140389 -2.5224581 2.62756052 0 0 Z " fill="#FFFFFF" transform="translate(155,209)"/>
<path d="M0 0 C2.5625 0.9375 2.5625 0.9375 4.5 3.6875 C5.5625 6.9375 5.5625 6.9375 5 9.75 C3.5625 11.9375 3.5625 11.9375 1.625 12.9375 C-0.4375 12.9375 -0.4375 12.9375 -2.125 11.625 C-4.85966693 8.10899966 -4.5184769 5.31025265 -4.4375 0.9375 C-2.4375 -0.0625 -2.4375 -0.0625 0 0 Z " fill="#FFFFFF" transform="translate(175.4375,203.0625)"/>
<path d="M0 0 C0.66 0.99 1.32 1.98 2 3 C0.1746875 3.37125 0.1746875 3.37125 -1.6875 3.75 C-4.84240749 4.5109548 -6.07911825 5.06439858 -8.6875 7.1875 C-11 9 -11 9 -13.8125 8.75 C-14.534375 8.5025 -15.25625 8.255 -16 8 C-16 7.01 -16 6.02 -16 5 C-11.217002 0.48413752 -6.40155615 -0.88297326 0 0 Z " fill="#FFFFFF" transform="translate(249,137)"/>
<path d="M0 0 C2.4375 0.375 2.4375 0.375 4.4375 2.375 C4.25 4.875 4.25 4.875 3.4375 7.375 C0.4375 9.375 0.4375 9.375 -2.25 9 C-3.013125 8.79375 -3.77625 8.5875 -4.5625 8.375 C-5.25 6.625 -5.25 6.625 -5.5625 4.375 C-4.06845761 1.38691523 -3.35109018 0.49040344 0 0 Z " fill="#FFFFFF" transform="translate(430.5625,148.625)"/>
<path d="M0 0 C1.4375 2.625 1.4375 2.625 2 5 C-2 5 -2 5 -5 3 C-6.98799818 2.29835358 -8.98698517 1.62627128 -11 1 C-8.60958517 -3.78082966 -3.99596523 -1.59838609 0 0 Z " fill="#FFFFFF" transform="translate(310,134)"/>
<path d="M0 0 C1.43836751 0.11458693 2.87570966 0.24209116 4.3125 0.375 C5.51326172 0.47941406 5.51326172 0.47941406 6.73828125 0.5859375 C9 1 9 1 12 3 C11.67 3.66 11.34 4.32 11 5 C6.71 4.34 2.42 3.68 -2 3 C-1.34 2.01 -0.68 1.02 0 0 Z " fill="#FFFFFF" transform="translate(324,141)"/>
<path d="M0 0 C-0.5625 1.9375 -0.5625 1.9375 -2 4 C-5.625 4.75 -5.625 4.75 -9 5 C-8.00233891 2.50584728 -7.31383315 1.21259665 -5.0625 -0.3125 C-3 -1 -3 -1 0 0 Z " fill="#FFFFFF" transform="translate(165,353)"/>
<path d="M0 0 C3.5 0.3125 3.5 0.3125 7 1 C7.33 1.66 7.66 2.32 8 3 C4.7 3.66 1.4 4.32 -2 5 C-1 1 -1 1 0 0 Z " fill="#FFFFFF" transform="translate(216,138)"/>
</svg>
