<svg xmlns="http://www.w3.org/2000/svg" viewBox="0 0 313.68 194.2"><g id="Capa_2" data-name="Capa 2"><g id="Capa_1-2" data-name="Capa 1"><path d="M93.86,88.53c2.17-.73,4.12-1.3,6-2s3.66-1.58,5.49-2.38a1.68,1.68,0,0,0,1.15-2.29c-.88-3.36-1.57-6.77-2.4-10.14-1.41-5.72-2.89-11.42-4.28-17.14-.63-2.58-1-5.21-1.67-7.79-.7-2.94-1.5-5.86-2.32-8.78-.07-.26-.58-.44-.92-.58-1.89-.72-3.52-1.73-4.2-3.77a11.08,11.08,0,0,1,.51-8A8.54,8.54,0,0,1,98,20.3c.27,0,.68-.21.74-.41a27.28,27.28,0,0,1,.83-3.08,16.22,16.22,0,0,1,2.26-3.87,8.44,8.44,0,0,1,4.24-3,8.14,8.14,0,0,1,8.12,2.17,6.85,6.85,0,0,1,.81,1.23c3.72-2.33,7-2.51,10.12.48.73-.94,1.37-1.79,2-2.63a8,8,0,0,1,8.1-3.2,8.14,8.14,0,0,1,6.31,5.14c.19.45.68,1.1,1,1.1a8.48,8.48,0,0,1,7.36,4c1.45-1.93,2.91-3.62,5.09-4.43a8.44,8.44,0,0,1,2.77-.63,1.29,1.29,0,0,0,1.39-1c1-2.3,2.6-4.12,5.17-4.54a6.46,6.46,0,0,1,6.77,2.68c.42.59.79,1.2,1.26,1.74a1,1,0,0,0,.8.31c4.06-.4,6.9,1.36,8.78,4.88a7.12,7.12,0,0,0,.54.77,10.41,10.41,0,0,1,6.87-2.82c2.52-.18,5-.24,6.91,1.94a14,14,0,0,0,.88,1.12,2.2,2.2,0,0,0,1,.66A5.42,5.42,0,0,1,202.85,26a2.71,2.71,0,0,0,.86,3.42c2.3,2.1,2.19,4.62.67,7.93A6.86,6.86,0,0,1,200.05,41a3,3,0,0,0-2,2.39c-.87,3.08-1.63,6.19-2.6,9.23-1.28,4-2.74,7.93-4.07,11.9-.73,2.16-1.39,4.34-1.95,6.54a1.76,1.76,0,0,0,.65,1.42c5.27,4,10.57,7.89,15.88,11.81.93.69,1.91,1.32,2.87,2a27.07,27.07,0,0,0,10.71,4.63c1.8.29,3.56.89,5.34,1.35.69.18,3.59-.86,3.81-1.49a2.51,2.51,0,0,0,0-1.38c-1-4-2-7.9-2.88-11.87-.75-3.27-1.41-6.56-2-9.86A13.46,13.46,0,0,0,220.28,61c-.11-.12-.26-.22-.31-.36-1-2.62-3.14-2.36-5.18-2-2.62.41-5.21,1-7.79,1.62a8.13,8.13,0,0,0-1.61.76c-1.07.49-2.12,1-3.22,1.41a2,2,0,0,1-2.37-.72c-.61-.76-.31-1.46.11-2.21a43.73,43.73,0,0,1,13.43-14.81c-.51-.34-1-.69-1.47-1a9.08,9.08,0,0,1-3.8-11.34,37.71,37.71,0,0,1,1.91-4c1.73-3.14,6.72-5.31,10-4.32a8.92,8.92,0,0,1,5,3.18c.48.67.87.7,1.56.28a11.45,11.45,0,0,1,2.31-.95,1.36,1.36,0,0,1,2,.85c1.16-.55,2.25-1.13,3.38-1.6a13.06,13.06,0,0,1,10-.24c3,1.18,4,3.85,4.83,6.57a9.76,9.76,0,0,1-.09,3.76,3.07,3.07,0,0,0,.41,2.48,4.11,4.11,0,0,1,.6,3.54,16.61,16.61,0,0,1-3.91,8c-2.56,2.79-5,5.71-6.34,9.37a25.23,25.23,0,0,0-1.25,11.2,20.86,20.86,0,0,0,1.14,5.93,89.41,89.41,0,0,0,4.44,8.3,1,1,0,0,0,.65.43c2.56.27,5.12.51,7.77.77a8.8,8.8,0,0,1,0-1.25c.26-2.17.57-4.33.8-6.5a2.22,2.22,0,0,0-.24-1.35c-.72-1.1-.52-1.82.59-2.43a4.94,4.94,0,0,0,1.7-1.51c2.12-3.19,4.75-5.67,8.74-6,3.82-.37,5.66.76,7.13,4a29.59,29.59,0,0,1,1.26,3.1c.33,1.06.48,2.18.76,3.53.41-.52.7-.91,1-1.28,2.22-2.74,4.95-4.26,8.59-3.53a6.49,6.49,0,0,1,1.87.73,18.07,18.07,0,0,1,8.09,8.88,6.61,6.61,0,0,1,.07,5c-.58,1.51-1.27,3-1.86,4.36,1.92.31,3.92.47,5.83,1a13,13,0,0,1,7.28,5.3c1.15,1.58.77,3.33-.17,4.94-.34.59-.73,1.14-1.27,2,.89,0,1.62,0,2.34,0,1.74,0,3.48,0,4.87,1.37a9.19,9.19,0,0,1,2.71,5.49,19.46,19.46,0,0,1-1.95,10.37A1.4,1.4,0,0,0,311,124c2.52,2.41,3.48,7.83,2,11a6.71,6.71,0,0,1-4.24,3.47,2.82,2.82,0,0,1-1.91-.36,1.68,1.68,0,0,0-2.08.11,1.66,1.66,0,0,1-2.1.25,2.44,2.44,0,0,0-1-.19c-2.21-.15-4.43-.22-6.64-.46-1.78-.2-3.53-.62-5.3-.92s-3.53-.6-5.53-.94c.29.85.56,1.6.8,2.36.74,2.32,1.18,4.65.16,7a4.3,4.3,0,0,1-4.79,2.24c-.69-.19-1.36-.44-1.88-.61-.95,1.3-1.81,2.58-2.78,3.76-1.92,2.33-4.53,3-7.44,3.22A18.16,18.16,0,0,1,258,152.18c-1.05-.54-2-1.26-3.11-2l-1.17.95c1.24,1.81.92,3.85,1,5.83.19,4.86.43,9.71.67,14.56a2,2,0,0,0,1.46,1.87,15.62,15.62,0,0,1,8.11,7.46,6.35,6.35,0,0,1-.29,5.86,2.07,2.07,0,0,1-2.56.8c-1.95-.66-3.86-1.42-6-2.21-1.5,1.85-3,3.94-4.74,5.75a18.14,18.14,0,0,1-4.25,3,2.46,2.46,0,0,1-2.06-.46,4.85,4.85,0,0,1-2.1-4c0-.75-.09-1.5-.15-2.4a6,6,0,0,0-1.05.32c-1,.54-2,1.18-3,1.67a2.94,2.94,0,0,1-4.06-2.23c-.06-.38-.11-.75-.17-1.13-1.3.71-2.51,1.31-3.67,2A28.34,28.34,0,0,1,221,191.6a4.25,4.25,0,0,1-2.4-.47c-1.41-.69-1.56-1.3-1-2.8s.39-1.57-1.11-1.61-3.23-.11-4.85-.23c-.92-.07-1.21-.69-1.24-1.59-.09-3.08,1.4-5.14,4.28-6.35s5.94-2.79,8.88-4.26a1.83,1.83,0,0,0,.81-1.17q1.73-9.12,3.35-18.24c.11-.62,0-1.28,0-1.92s-.32-1-.92-1.3c-2.7-1.29-5.41-2.55-8-4-4-2.21-5.94-6-7.34-10.13a26.06,26.06,0,0,1-1.56-10.83c.33-3.63.5-7.27.67-10.9a1.62,1.62,0,0,0-.6-1.33c-7-3.51-12.38-9-17.51-14.75-2.66-3-5.39-5.9-8.1-8.85a5,5,0,0,0-.5-.38c-.19.52-.36,1-.49,1.39-1.66,5.88-3.34,11.77-5,17.67-.35,1.27-.45,2.61-.83,3.86a2.88,2.88,0,0,1-1.23,1.76c-1.79.71-3.42,1.85-5.66,1.29-1.73-.44-3.66-.1-5.5-.09-1.64,0-3.37-.29-4.9.13-3.59,1-6.72-.52-10-1.34l-.39-.09a19.88,19.88,0,0,1-1.63,3.05c-1.44,1.87-3.87,2.11-5.79,3.21A15.19,15.19,0,0,1,135,123c-3.07,0-6.13.48-9.2.58a20.6,20.6,0,0,1-4.26-.53c-1.29-.24-2.55-.66-3.83-1a3.69,3.69,0,0,1-3-3.07q-1.74-7.47-3.58-14.91c-.3-1.22-.78-2.4-1.21-3.7-1.09,1.06-2.19,2.12-3.27,3.19-2.08,2.07-4.09,4.2-6.22,6.21-1.73,1.63-3.62,3.09-5.37,4.69a1.72,1.72,0,0,0-.4,1.4c.74,3.19,1.8,6.32,2.29,9.54.81,5.27,1.69,10.57,1.3,16a34.5,34.5,0,0,1-3.88,13,45.56,45.56,0,0,1-5.64,8.27,2.5,2.5,0,0,0,0,2c1.23,3.54,2.45,7.09,3.87,10.56,1.51,3.66-.27,5.41-3.59,5.08a2.77,2.77,0,0,0-3.13,1.94,6.29,6.29,0,0,1-2.42,2.32,2.41,2.41,0,0,1-3.25-.56c-1.26-1.34-2.49-2.72-3.84-4s-2.7-2.23-4-3.36c-1.06-.89-2.08-1.84-3.17-2.7a2.13,2.13,0,0,0-1.35-.56c-2.5.4-5,.93-7.48,1.38-.24,0-.52-.17-.78-.27s-.46-.21-.5-.17c-.59.79-1.48.44-2.22.53-1.91.26-2,1.75-2.34,3.13-.14.61-.3,1.22-.49,1.81-.77,2.44-1.6,4.85-2.31,7.3s-1.7,3.42-4.28,3.16A5.72,5.72,0,0,1,44.84,189c-1.43-1-1.81-1.13-3.35-.24-2.88,1.66-3.41,2.46-6.64-1.27-1.75-2-2.37-4.6-2.85-7.17-.41-2.14-.65-4.32-1.06-6.46a1.78,1.78,0,0,0-1-1.16,18.33,18.33,0,0,1-9.18-6A36.13,36.13,0,0,0,18,163.6a1.58,1.58,0,0,0-1.3-.25c-1.72.45-3.43,1-5.13,1.53a2.47,2.47,0,0,0-1,.73,48.65,48.65,0,0,1-3.35,4,4.32,4.32,0,0,1-6.71-.56c-.59-.79-.82-1.63,0-2.37s1.54-.37,2.24.26c1.27,1.12,1.75,1.13,2.89-.09.67-.72,1.27-1.51,2-2.36-.44-.19-.72-.33-1-.44a5.62,5.62,0,0,1-2.29-8.62,3.86,3.86,0,0,1,6.84.87,40.66,40.66,0,0,1,1.2,5.32l2.89-1.12c-1.06-2.24-2-4.33-3-6.4A27.52,27.52,0,0,1,10,143.56c-.18-3.42,0-6.85,0-10.27A117.54,117.54,0,0,1,11,114.07c.33-2.09,1.08-4.1,1.45-6.18a60.07,60.07,0,0,1,4.59-13.83c1-2.3.27-3.79-2.14-4.59L8,87.19a6.43,6.43,0,0,1-4-7.94,9.68,9.68,0,0,1,3.89-5.48,14.35,14.35,0,0,0,5.49-8A62.31,62.31,0,0,1,18.7,53.32,10.8,10.8,0,0,1,29,48.41a14.67,14.67,0,0,1,5.39,1.83,1.51,1.51,0,0,0,2-.33c4.55-4,9.91-4.86,15.67-4,3.32.47,6.63,1,9.9,1.68a35.35,35.35,0,0,1,4.76,1.57,1.27,1.27,0,0,0,1.54-.37,35.18,35.18,0,0,1,4.35-3.65c2-1.42,4.44-1.2,6.73-.81,5.89,1,9.07,4.79,10.17,10.47a2.58,2.58,0,0,0,2.1,2.33,12.14,12.14,0,0,1,6.59,4.48c2.21,3.06,3.5,7.05.57,10.88-1.37,1.79-3,3.42-4.42,5.14a1.59,1.59,0,0,0-.44.92C93.85,81.74,93.86,85,93.86,88.53Zm-5.59-7.85c-.8.19-1.34.32-1.88.43-1.71.35-3.41.81-5.14,1-3.45.38-6.92.65-10.38.88a12.52,12.52,0,0,1-8.72-2.67c-.65-.49-1-1-2-.71-.57.19-1.07-.28-.62-1a5,5,0,0,1,2.8-2.47c1.61-.52,2.75.33,2.59,2.14l6.29,1c-3.85-4.27-3.62-8.78-1.19-13.56l-3.2.51-.18-.34a14.64,14.64,0,0,1,1.65-1.41c1.72-1.08,3.48-2.09,5.23-3.12.83-.49.9-1.08.15-1.68-1.82-1.48-3.53-3.13-5.84-3.89-.53-.17-1-.36-1.57-.55a72.79,72.79,0,0,0-7.19-2.49,36.44,36.44,0,0,0-11.56-.41,15.08,15.08,0,0,0-6.59,2c-1.36.82-1.54,2-.84,3.38a39.22,39.22,0,0,1,3,6.78,26,26,0,0,1-.83,16.69c-2,5.19-4.84,9.86-9.89,12.81-3,1.74-5.89,3.39-9.56,2.26-.22.51-.39,1-.61,1.46a56.54,56.54,0,0,0-5.46,33.31c.23,1.67-.11,3.41-.05,5.12a52.88,52.88,0,0,0,.5,6.66c.33,2,1.06,3.91,1.59,5.87A42.87,42.87,0,0,0,20,153.26c.73,1.8,1.75,3.49,2.65,5.22a13.9,13.9,0,0,0,3.06,3.7,25.81,25.81,0,0,0,4.5,3.27c2.42,1.46,5.18,2.64,6,5.77a29,29,0,0,1,.85,3c.33,2.16.49,4.34.82,6.5a16.69,16.69,0,0,0,.83,3.1c.29.81.88,1,1.52.27a13.71,13.71,0,0,0,1.19-1.64c1-1.62,2.43-1.78,3.67-.38.5.56,1,1.11,1.65,1.79a6.69,6.69,0,0,0,.49-1c.58-2.26,1.16-4.53,1.71-6.8a27.23,27.23,0,0,1,3.11-8.48,15.81,15.81,0,0,1,4.77-5,2.45,2.45,0,0,1,2.06-.16c.33.16.42,1.27.27,1.87a26.24,26.24,0,0,1-1.27,3.37,2.69,2.69,0,0,0,.84.25c.83-.09,1.65-.27,2.47-.36a43.53,43.53,0,0,0,14.09-4,14.75,14.75,0,0,0,2.84-1.75c1.48-1.15,2.78-2.54,4.32-3.6,4.54-3.12,7.07-7.64,8.56-12.71a31.32,31.32,0,0,0,.69-14.82c-1.58-8.28-3.26-16.52-6.07-24.49-.59-1.67-1-3.39-1.57-5.21l-.71.64c-1,1-2,2.14-3.12,3.12-1.67,1.48-3.43,2.86-5.11,4.33-2.43,2.14-4.84,4.26-8,5.36-2,.69-2.7.59-3.93-1.26.34-.3.68-.64,1.05-.93,1-.74,2-1.44,3-2.21,3-2.36,5.92-4.73,8.83-7.15,1.38-1.15,2.66-2.43,4-3.63l-2.79-2.66s-.07,0-.13,0c-.56.37-1.1.77-1.67,1.14-4.68,3.06-9.94,4.69-15.32,6-1.62.38-3.42.93-5.12-.11l.09-1.46c1.52-.49,3-1,4.46-1.44a23.73,23.73,0,0,0,2.4-.71,69,69,0,0,0,6.3-2.9c3.52-1.94,7-4,10.41-6.13A15.53,15.53,0,0,0,81.82,88c1-1.07,1.76-2,3.46-1.77s2.9-.61,3-1.88S88.27,82,88.27,80.68Zm181.2,67.6a10.71,10.71,0,0,0,3.24-6.63,3.14,3.14,0,0,1,1-1.92,1.83,1.83,0,0,1,2.55.51,9.81,9.81,0,0,0,1,1,23.47,23.47,0,0,0,2.88,2.09,1.49,1.49,0,0,0,1.4-.32c.87-1,.28-3.74-.8-4.58a2.22,2.22,0,0,1-.82-1.38c-.15-3-.21-6-.28-9-.11-5-.62-9.9-3.52-14.3-2.05-3.13-3.88-6.33-7.33-8.23-2.79-1.53-5.42-3.35-8.14-5a11.59,11.59,0,0,0-5.37-1.85,2.14,2.14,0,0,1-1.27-.29,15.58,15.58,0,0,1-1.56-1.94c.53-.34,1-.91,1.61-1,1.64-.19,3.29-.19,5.08-.28-4.08-2.63-8.17-5.13-13.21-5.82,0,.57.07,1,.08,1.35,0,1.47-.6,2-2.05,2.11-1.67.07-2.55-.92-3.26-2.19-.38-.69-.66-1.45-1-2.15-1.93-3.57-4-7-5.15-11s-1.11-8.21-1-12.36a19.48,19.48,0,0,1,3.58-11c1.78-2.49,3.93-4.72,5.93-7.05a13.45,13.45,0,0,0,2.46-4.48A41.89,41.89,0,0,1,241.9,45c-2.19,1.13-4.58.86-6.94.75-4.43-.23-7-2.12-8.49-6.3-.1-.27-.25-.54-.32-.69l-4.47,5.32c4.23-.74,7.64.85,8.87,4.1.74,1.95.12,3.78-.46,5.59-.91,2.86-3.26,4.08-6.07,4.88a5.26,5.26,0,0,0,.95,1.25A8.34,8.34,0,0,1,228.16,65c1,4.07,1.81,8.21,2.77,12.31,1,4.34,2.18,8.64,3.11,13a9.94,9.94,0,0,1,.05,5.67,1.39,1.39,0,0,1-2.39.66l-1.52-1.21c-1.77,1-2.85,5.51-2.14,7.19.42,1,1,2.09,2.49,2a1.63,1.63,0,1,1,.05,3.25c-2.39.14-5.11-1.77-5.45-4.16a38.24,38.24,0,0,1,0-5.36c-.24.19-.6.43-.9.71a24.27,24.27,0,0,0-5.33,7.32,34.46,34.46,0,0,0-3.5,14.07,73,73,0,0,0,.26,10.25,23.6,23.6,0,0,0,3.42,9.74,9.49,9.49,0,0,0,1.34,2.06,20.62,20.62,0,0,0,7.41,4.47,25.88,25.88,0,0,0,6.4,1.78,66.9,66.9,0,0,0,10.59-.2,69.31,69.31,0,0,0,7.71-1.57,1.2,1.2,0,0,0,1-1.27,34.71,34.71,0,0,1,.42-3.69,12.74,12.74,0,0,1,2.13-5.65c.48-.63,1.12-1.1,1.81-.58.28.22.24,1.05.12,1.55-.39,1.7-1.05,3.35-1.3,5.07-.3,2,0,4.09,1.62,5.38,1.8,1.42,4.13,1.65,6.27,1.95-.15-2.27-.3-4.42-.44-6.6-2.8.93-4,0-4-2.84a6.85,6.85,0,0,1,.32-2.12c.58-1.66,1.26-3.28,1.9-4.91,1.09-2.74,2.24-5.46,2.45-8.48a14.82,14.82,0,0,0-2.65-9.74c-.55-.79-.74-1.66.25-2.29,1.21-.77,2.67-.66,3.23.32a24.45,24.45,0,0,1,2.17,4.38,23.68,23.68,0,0,1,.19,13.8c-.58,2.18-1.39,4.31-2.09,6.45,2.35.38,2.67.87,2,3.29-.06.23-.13.46-.17.69C267.45,144,266.82,146.46,269.47,148.28Zm-90-109.4a4.89,4.89,0,0,1-5.17-1.39c-.21-.21-.73-.09-1.11-.12a32.52,32.52,0,0,1-5.78-.48c-1.83-.46-3.45-1.74-5.5-1.51a1.67,1.67,0,0,1-.69-.19c-2.23-.83-4.46-1.66-6.68-2.52-.8-.31-1.14-.18-1.23.75-.32,3-.73,6.1-1.08,9.15a15.88,15.88,0,0,0,0,1.7,2.32,2.32,0,0,1,3.18,1.1c1.63-1,2.07-1.11,2.78-.57,1.48,1.11,1.59,1.51,1,3.31a5.32,5.32,0,0,0-.16,1.06c-.57,5.95-.93,11.91-2.16,17.8-.81,3.93-1,8-1.91,11.89a91.39,91.39,0,0,0-1.53,13.76q-.39,6-.85,11.9a12.62,12.62,0,0,1-.34,1.71c-.06.3-.17.6-.25.91-.34-.12-.77-.14-1-.36-2.06-1.89-2.21-4.27-1.73-6.82a10.53,10.53,0,0,0,.1-1.26l-.34,0a7,7,0,0,0-.46,1.57c-.13,2.35-.17,4.7-.29,7,0,.85.19,1.32,1.11,1.49,1.28.25,2.54.63,3.79,1A32.78,32.78,0,0,0,158,111.2a50.1,50.1,0,0,0,7.35.43c2.61,0,5.21-.27,8-.44l-.44-2.43c-.37.31-.59.53-.84.7-.57.38-1.14.79-1.83.2a1.38,1.38,0,0,1-.33-1.91,5.78,5.78,0,0,0,.58-1.82c.42-2.88.71-5.78,1.17-8.66,1.1-6.94,2.17-13.87,4.3-20.61a184.51,184.51,0,0,0,5.4-23.2,8.56,8.56,0,0,0-.49-2.6,1.88,1.88,0,0,1,0-1.08,2,2,0,0,1,2.44-1c1,.52.94,1.47.74,2.4-.53,2.5-1.05,5-1.61,7.5-1.56,7-3.14,13.92-4.69,20.89-1.05,4.75-2.21,9.48-3,14.26-.7,4-1,8.17-1.43,12.26-.06.47-.07,1-.1,1.42a2.31,2.31,0,0,0,.67-1.17q1.28-4.74,2.56-9.47c1.15-4.24,2.34-8.46,3.44-12.71.71-2.75,1.36-5.51,1.92-8.28.62-3.07,1.11-6.17,1.65-9.26.1-.58.2-1.15.26-1.73a2.82,2.82,0,0,0,0-1.26,1.43,1.43,0,0,1,.39-1.81,1.08,1.08,0,0,0,.37-.86,1.66,1.66,0,0,1,.51-1.94.88.88,0,0,0,.29-.73c-.46-1.62.59-3,.75-4.5.08-.72.27-1.3-.28-1.86A1.14,1.14,0,0,1,186,50a2.67,2.67,0,0,1,2.15-.31c1.39.73,2.67.55,3.25-.92.9-2.22,1.69-4.48,2.51-6.74a6.3,6.3,0,0,0,.21-1.21c-1.29,0-2.2.18-2.63,1.5A10.64,10.64,0,0,1,190,44.94a5,5,0,0,1-6.16,1.55c-1.52-.73-2.19-2.17-2.88-3.53A35,35,0,0,1,179.48,38.88Zm-77.34-.51-.34.08a2.33,2.33,0,0,0-.15.75,39.94,39.94,0,0,0,2.48,9c.3.68.71,1.17,1.56.87a1.8,1.8,0,0,1,2.52.85c1.29-1.08,1.78-1.08,3.21-.21a1.29,1.29,0,0,0,.93,0,4.22,4.22,0,0,1,3.82,1,1.4,1.4,0,0,1,.18.65c.14,2.64-.15,5.39.5,7.9,1.39,5.45,1.84,11,2.67,16.52.35,2.33.52,4.67.84,7,.29,2.07.78,4.13,1,6.21.29,3.1.31,6.23.59,9.34.31,3.51.75,7,1.18,10.49.21,1.65.62,3.28.77,4.93.07.9-.19,1.83.36,2.67,0,0-.09.11-.14.18-1.63-.58-3.35-1-3.48-3.31a22.2,22.2,0,0,0-.09,3.89,1.27,1.27,0,0,0,.79.92c1.83.39,3.68.66,5.52,1a10.14,10.14,0,0,0,2.56.42,47,47,0,0,0,6.81-1.15,57.37,57.37,0,0,0,7.37-2.66c1.45-.62,1.37-3.13-.06-4a9.65,9.65,0,0,1-.53,1.57c-.15.28-.52.45-.8.67a6,6,0,0,1-.1-.94c0-.39.2-.78.19-1.17,0-1.67-.1-3.34-.19-5-.06-1.09-.18-2.18-.27-3.27l-.47,0c0,2.1,0,4.19,0,6.29,0,1.31-.1,2.63-.24,3.94a1.17,1.17,0,0,1-.69.82,1.14,1.14,0,0,1-1-.48,5.93,5.93,0,0,1-.45-1.82c-.06-.63,0-1.28,0-1.92,0-3.75-.06-7.51-.11-11.26q-.06-3.84-.16-7.66c-.06-2.46-.14-4.93-.22-7.39-.09-2.75-.16-5.5-.29-8.25-.09-2.07-.34-4.13-.36-6.19,0-3.06.14-6.13.13-9.2,0-2.5-.09-5-.2-7.51a24,24,0,0,0-.41-4.24c-.18-.82-.54-1.5.22-2.16s1.41-.28,2.05.2c.15.11.3.21.24.18a11.55,11.55,0,0,1,2.55-1.67c1.47-.47,2.22-1.18,2.23-2.75s0-3.26,0-4.89V33a21.87,21.87,0,0,0-3.24,1.29,19.17,19.17,0,0,1-6.14,2.22,34.59,34.59,0,0,0-6.19,1.71,18.66,18.66,0,0,1-10.63,1.38c-2.37-.44-2.39-.36-3.46,1.83a7.32,7.32,0,0,1-7.42,3.46c-2.92-.57-4.14-2.58-4.88-5.14C102.55,39.31,102.33,38.85,102.14,38.37Zm.51-13c-.52-.26-1-.46-1.36-.7-2.67-1.54-5.1-.66-6.13,2.23-1.23,3.43.13,5.79,3.73,6.37,1.17.19,2.38.17,3.57.31a3.41,3.41,0,0,1,1.05.44c.47.22.9.64,1.37.68,1.21.12,1.53.87,1.59,1.87,0,.63,0,1.27,0,1.9a2.65,2.65,0,0,0,2.15,2.37A2.58,2.58,0,0,0,111.58,39a17.68,17.68,0,0,0,.08-3.85c0-.82.26-1.14.92-.89a4.57,4.57,0,0,0,4.59-.7c.51-.38,1-.47,1.41.18a3.35,3.35,0,0,0,2.71,1.55,17.1,17.1,0,0,0,3.2-.09c2.65-.4,4.92-1.46,6.31-3.95a1.71,1.71,0,0,1,1.24-.85,1.65,1.65,0,0,1,1.09,1.05c.24,1,.86,1,1.62.94,1.05-.08,1.22-.88,1.39-1.68.31-1.4,1.25-1.73,2.45-.94.35.23,1,.45,1.23.29a2,2,0,0,0,.78-1.3c.14-1.45.22-1.67,1.65-1.37,1.93.4,3.94-1.47,4.25-3.34.44-2.66-.52-4.73-2.73-5.24-1.81-.43-3.64-1.06-5.44-.08-.83-1.12-.83-1.12-.79-2.29.07-2-.86-3.63-2.41-4.15-1.78-.6-3.4,0-4.5,1.92-.79,1.38-2.1,1.87-3.38,2.5a4.08,4.08,0,0,0-1.21,1c-.66.73-1.2,1.57-1.89,2.26s-1.11.28-1.43-.37a11.77,11.77,0,0,1-.94-2.16,2.17,2.17,0,0,0-2.24-1.62,4.19,4.19,0,0,0-4.14,2.29c-.28.51-.63,1-1.16,1.79a9.31,9.31,0,0,1-.92-1.89,5.2,5.2,0,0,0-5.55-4A4.6,4.6,0,0,0,104,16.88c-.89,1.81-1.53,3.65-.92,5.62A3.06,3.06,0,0,1,102.65,25.32Zm59.93-6-.71.26a15.44,15.44,0,0,0-1.08-1.44,3.75,3.75,0,0,0-5.7.51,8.54,8.54,0,0,0-1.2,7.92c.72,2.23,2.4,2.83,4.09,1.76,1.18-.75,1.28-.68,1.76.6a3.22,3.22,0,0,0,5.16,1.45c1.18-.95,1.2-1,2,.38,1,1.67,2.13,3.08,4.3,3.06,1.09,0,2.11.14,2.81-1.19s2-1.09,2.61.3c.87,2.06,1.87,2.15,4.2,1.32a2.94,2.94,0,0,1,1-.33c.67.06,2.2,2.33,2,3A4.67,4.67,0,0,0,185,41.12c.36.43,1.1.92,1.53.82a2.5,2.5,0,0,0,1.34-1.32,26.71,26.71,0,0,0,1-3.07c.38-1.2,1.26-1.54,2.14-.7s1.67.37,2.41-.19a5.6,5.6,0,0,0,.77-.89,18,18,0,0,0,2.09,1.2A3.73,3.73,0,0,0,200.75,35a3,3,0,0,0-1.59-4.15c-.45-.22-1-.2-1.48-.41s-1.14-.51-1.34-.94a1.13,1.13,0,0,1,.72-1.54,3.09,3.09,0,0,0,1.6-2.52c.13-.71.34-1.42-.42-1.95a1.78,1.78,0,0,0-2.22.13c-.49.35-.92.78-1.52,1.29-.12-.87-.19-1.53-.31-2.19a3.77,3.77,0,0,0-2-3,6,6,0,0,0-7.31,2.37c-.31.59-.56.76-1.18.47a4.12,4.12,0,0,0-3.7.05,4.48,4.48,0,0,1-1,.25,32.76,32.76,0,0,0-.75-3.23,4,4,0,0,0-2.84-3,3.53,3.53,0,0,0-3.7,1.42l-.92,1.09c-.74-1.57-1.31-3-2.07-4.3a6.55,6.55,0,0,0-2-2.37c-1.77-1.05-3.28-.17-3.58,1.89-.07.51,0,1-.11,1.55C162.91,17.09,162.74,18.19,162.58,19.28ZM38.67,73a47.5,47.5,0,0,0-1.11-5.7,59.85,59.85,0,0,0-3-7.55,26,26,0,0,0-3-4.43,3.59,3.59,0,0,0-1.92-1.46c-2.24-.29-4.49,0-5.91,2a23.38,23.38,0,0,0-2.26,4.43c-1.5,3.48-3,7-4.36,10.51a19,19,0,0,1-7.08,9c-.62.43-1.2.86-.88,1.56a2.54,2.54,0,0,0,1.41,1c1.71.61,3.47,1.11,5.21,1.68.57.19,1.1.52,1.67.65a10,10,0,0,1,7,5.54c1,2,2.5,2.48,4.44,1.29a18,18,0,0,0,5.43-5.79c.76-1.17,1.2-2.57,2-3.67C38.37,79.38,38.21,76.27,38.67,73Zm149.19,3.5c-.78,2.58-1.46,5-2.28,7.43a1.85,1.85,0,0,0,.33,2.07c4.17,4.69,8.2,9.51,12.54,14a39.59,39.59,0,0,0,12.83,8.69c1,.42,1.47.35,1.85-.77a32.06,32.06,0,0,1,7.24-11.42l.9-1a29.22,29.22,0,0,0-3.83-.8c-4-.31-7.42-2-10.77-4.07-6.33-3.81-11.89-8.65-17.61-13.26C188.69,77.06,188.32,76.79,187.86,76.45Zm-108.1.84,0,.19a37.41,37.41,0,0,0,3.83-.69,57.26,57.26,0,0,0,5.59-1.87,11.82,11.82,0,0,0,3.88-2c3.83-3.65,2.15-10.55-2.38-12.3A9.57,9.57,0,0,0,85,60.11a18.71,18.71,0,0,0-9.22,5,12,12,0,0,0-3.4,5.65c-1,3.88,1.68,6,4.37,6.31C77.77,77.21,78.76,77.23,79.76,77.29ZM244.83,166l.28,0c-.41-4-.84-7.92-1.24-11.88-.07-.73-.41-1-1.09-.92-1.79.09-3.59.22-5.38.22-.91,0-1.1.32-1.19,1.17-.22,2.31-.21,4.61-.59,6.95-.62,3.77-.39,7.69-.43,11.54,0,.44.57,1,1,1.29.88.73,1.88,1.31,2.75,2.06s1.78.7,2.13-.41a4.78,4.78,0,0,1,2.45-2.64,2,2,0,0,0,1.08-1.84C244.63,169.67,244.74,167.83,244.83,166ZM108.22,88.84c-1.45.65-2.61,1.15-3.75,1.69L95.08,95l-6.15,2.92a1.2,1.2,0,0,0-.69,1.67,43.57,43.57,0,0,0,2,5.72c1.56,3,1,3,4,1.49a4.69,4.69,0,0,0,1-.63c2.45-2.16,4.87-4.35,7.34-6.49,1.93-1.68,3.92-3.28,5.86-4.94.26-.23.6-.65.56-.93C108.85,92.21,108.54,90.66,108.22,88.84ZM239,28.31c-.41,0-.78,0-1.13,0-2.44.27-4.8.82-6.29,3a15.11,15.11,0,0,0-2,4A5,5,0,0,0,233.5,42a12.84,12.84,0,0,0,2.83.37c2.75,0,5.22-.7,6.81-3.2.6-.94,1.2-1.88,1.72-2.87a5,5,0,0,0-1.48-6.8A5.84,5.84,0,0,0,239,28.31ZM212.37,40.12c1.19,1.87,3,3,5,1.67a12.83,12.83,0,0,0,5.07-5.74c1-2.44,1.36-5.12-1.6-7.43a5.06,5.06,0,0,0-5.34-1,7.45,7.45,0,0,0-4.1,4.42c-.5,1.24-1.13,2.52-.63,4,2.09-1.31,2.95-1.17,3.79.5C215.16,37.64,214.06,39.42,212.37,40.12Zm84.35,70.22a25.74,25.74,0,0,0-3.2.9c-1.8.76-3.53,1.68-5.3,2.49-.73.33-.57.83-.43,1.39.4,1.63.81,3.25,1.16,4.88.18.85.26,1.72.42,2.82a7.44,7.44,0,0,0,2.41-.75,2.4,2.4,0,0,1,2.39-.49,4.85,4.85,0,0,0,1.66.07c1.27-.1,2.53-.28,3.8-.38,1.53-.11,2-.45,1.72-1.93-.36-2.11-.89-4.19-1.46-6.26a3.48,3.48,0,0,0-1.12-1.64A11.56,11.56,0,0,0,296.72,110.34ZM280,97.87c1.55-1.44,2.91-2.77,4.35-4a1.24,1.24,0,0,0,.28-1.92c-2.57-3.89-6.31-6.37-10.22-8.65a1.14,1.14,0,0,0-1,.35,51.57,51.57,0,0,0-2.36,4.7,1.51,1.51,0,0,0,.45,1.35C274.74,91.92,277.87,94.24,280,97.87Zm7.13-8.48c.73-1.19,1.29-2.15,1.9-3.06a3.9,3.9,0,0,0,0-4.4,14.36,14.36,0,0,0-6.75-6,2.82,2.82,0,0,0-3.08.17c-1.33,1.08-2.5,2.37-3.88,3.71C280,82.44,284,85.22,287.17,89.39Zm-16.34-8.07-.71-.22c-1.12-.3-2.46-.28-2.67-1.91,0-.17-.42-.33-.67-.43A22.88,22.88,0,0,0,258.14,77a1.47,1.47,0,0,0-1.15.59,13.85,13.85,0,0,0-1.3,6.25c4.61-.62,8.48,1.11,12.16,3.42Zm15.88,29.1c1.72-.72,3.35-1.49,5-2.08,1.05-.38,1.26-1,.91-1.91-.77-2-1.5-4-2.37-5.88a37,37,0,0,0-2.09-3.73c-.46-.77-1-.74-1.64-.12-1.19,1.19-2.38,2.37-3.61,3.5a1.11,1.11,0,0,0-.2,1.58c.71,1.29,1.45,2.57,2.07,3.9S286,108.7,286.71,110.42ZM223.05,186l.21.38a9.21,9.21,0,0,0,2-.82c2-1.44,4-3,6-4.49,1.54-1.18,3-2.47,5.43-1a4.23,4.23,0,0,0-3.15-2.3,2.7,2.7,0,0,1-2.22-1.78,36.87,36.87,0,0,1-1-3.83c-.67-.1-1,.41-1.11,1.1-.17.86-.31,1.72-.42,2.59a1.39,1.39,0,0,1-1.09,1.38,11.86,11.86,0,0,0-2.36.69c-1.92,1-3.79,2-5.68,3L215.83,183a5.3,5.3,0,0,0,.79.14c1.93-.1,3.89.07,5.64-1.15a2.2,2.2,0,0,1,1.8.24,1.16,1.16,0,0,1,.26,1.78C223.88,184.7,223.47,185.36,223.05,186Zm17.82-3.45c2.12-.4,3.52-1.15,4.29-2.93.15-.36,1.22-.57,1.76-.44a1.7,1.7,0,0,1,.84,1.38c-.06,1.25-.44,2.49-.55,3.75a27.64,27.64,0,0,0,.06,3.15l.56.12c.61-1.05,1.3-2.07,1.83-3.16.66-1.37,1.56-2.7,1.07-4.38a.81.81,0,0,1,.43-.64c.68-.21,1.49-.61,2.06-.41,1.88.65,4,.64,5.62,2a2.69,2.69,0,0,0,.61.28,5.13,5.13,0,0,0-3.59-4.14c-1.94-.45-4.14-.39-4.9-2.86,0-.13-.31-.2-.22-.15-.2-1.55-.37-2.88-.54-4.22l-.38-.12c-.28.28-.74.52-.81.84a25,25,0,0,0-.54,3.66,1.64,1.64,0,0,1-.9,1.37,43.26,43.26,0,0,0-4.75,3.75A15.29,15.29,0,0,0,240.87,182.58ZM83.52,166.48l-9.38,5c3.91,1.69,5.78,5.07,8.37,7.74,1.47-1.55.93-4.72,4.25-4.19C85.65,172.08,84.6,169.3,83.52,166.48Zm212.22-38c-.07.72-.1,1.52-.24,2.31a18.62,18.62,0,0,1-.57,2.43c-.21.69-.08,1.08.69,1.15,1.58.16,3.16.4,4.75.46,2.09.07,3-.79,2.88-2.92a20,20,0,0,0-.95-4.88c-.71-2.23-1.5-2.6-3.81-2.33-.59.07-1.18.18-1.78.2-1,0-1.46.39-1.17,1.48A15,15,0,0,1,295.74,128.52Zm5.4-19.89a5.23,5.23,0,0,0,.22.67,19.44,19.44,0,0,1,3.27,11.41,1,1,0,0,0,.51.78,2.54,2.54,0,0,0,2.94-1.39,31.59,31.59,0,0,0,1.17-3.89c.49-2.3.61-4.59-.74-6.72a2.7,2.7,0,0,0-2.43-1.48C304.47,108.12,302.87,108.4,301.14,108.63ZM84.32,55.69a5.08,5.08,0,0,0-.38-1.25,28.26,28.26,0,0,0-2.17-3.14c-2.49-3-5.59-3.27-8.65-1-1.49,1.12-1.43,1.52.06,2.62,1.76,1.29,3.39,2.74,5.13,4.06a1.72,1.72,0,0,0,1.31.34C81.17,56.88,82.68,56.28,84.32,55.69ZM291.24,95.52a7.32,7.32,0,0,0,.41.91,34.56,34.56,0,0,1,4.25,9.82,1,1,0,0,0,.69.66,1.49,1.49,0,0,0,1.12-.42c1.11-1.5,2.15-3.06,3.19-4.61s.85-2.63-.53-3.63a17.7,17.7,0,0,0-3.71-2.16A8.07,8.07,0,0,0,291.24,95.52Zm-21.58-2.75c-.68,1.8-1.49,3.25.07,5.15a15.84,15.84,0,0,0,3.85,3.51c2,1.24,1.87,1.32,3.52-.33.51-.51.54-.9.14-1.41A26.23,26.23,0,0,0,269.66,92.77Zm34.71,32a17.08,17.08,0,0,1,2.08,9.54.73.73,0,0,0,.3.57,2.55,2.55,0,0,0,3.48-1.33A6.53,6.53,0,0,0,304.37,124.73Zm-34.66-48.9a14,14,0,0,0-2.48-4.68,3.91,3.91,0,0,0-1.83-1.26c-2-.63-5.78,1.58-6.38,3.48ZM218.55,54.25l.1.37a17.75,17.75,0,0,0,2.7.26c2.19-.07,4.21-.57,5.28-2.81a3,3,0,0,0-.12-3.38,2.83,2.83,0,0,0-3.33-1c-2.05.76-4.05,1.64-6.06,2.52a13.86,13.86,0,0,0-1.61.94c2.21-.39,4.58-.82,7-1.22a3.41,3.41,0,0,1,1.31.06c1.08.26,1.34.89.61,1.7a5,5,0,0,1-1.77,1.13C221.29,53.35,219.91,53.77,218.55,54.25Zm37.24,33.1,10,6.35c.22-.71.38-1.37.63-2a1.14,1.14,0,0,0-.61-1.59,65.7,65.7,0,0,0-6.18-2.79A4.74,4.74,0,0,0,255.79,87.35ZM140.13,47.61c0,.55,0,1.06,0,1.56.16,6.29.31,12.57.5,18.86a24.86,24.86,0,0,0,.37,2.55,7,7,0,0,1-.05.79c0,1.27,0,2.55,0,3.82l.36,0c.1-1,.3-2.06.3-3.09,0-2.44-.16-4.88-.17-7.33,0-4.17.06-8.35.07-12.53,0-.9-.24-1.8-.19-2.69S141.42,47.92,140.13,47.61ZM288.7,133.13c.26.07.72.16,1.16.32,1.11.38,1.76,0,2-1.13s.62-2.48.75-3.74c.3-2.75-.33-3.25-2.92-2.37a1.33,1.33,0,0,0-.75,1C288.79,129.12,288.76,131.05,288.7,133.13Zm-8.9-29.86c-.6.66-1,1.19-1.51,1.64a1.11,1.11,0,0,0-.17,1.66c1.3,2,2.57,4,3.93,6.12.54-.41,1.83-.24,1.51-1.35A26.58,26.58,0,0,0,279.8,103.27ZM81.74,94.12c1.72,2.18,3.88,2,6.11-.38a4.35,4.35,0,0,0-1,0c-1,.21-1.5,0-1.33-1.2A6.66,6.66,0,0,0,85,90.34Zm204.36,27.2c-.37-1.7-.71-3.42-1.15-5.11-.08-.29-.59-.47-.9-.7a5,5,0,0,0-.6,1c-.07.23.09.54.15.81.28,1.41.52,2.83.88,4.21.16.62-.5,1.83.75,1.75S285.82,122.08,286.1,121.32ZM8.52,161.62l.47-.25c.06-1.24.21-2.49.15-3.72a1.45,1.45,0,0,0-1-.94,1.45,1.45,0,0,0-1.26.62,5.39,5.39,0,0,0-.24,2.84C6.82,160.8,7.85,161.15,8.52,161.62Zm275.74-29.25.31.22c.33-.24.91-.45,1-.75a40.71,40.71,0,0,0,.36-4.28c0-.19-.36-.49-.62-.57s-.53.24-.55.41C284.54,129.05,284.41,130.71,284.26,132.37Zm-34,29.73h-.13a16.82,16.82,0,0,0,0-2c0-.25-.39-.46-.6-.68-.21.22-.58.43-.6.67-.06,1.3-.07,2.61,0,3.92,0,.27.42.52.65.78.24-.3.62-.57.68-.9A8.81,8.81,0,0,0,250.24,162.1ZM112.53,51.5l-.7.12,1.68,9.09.43-.07ZM249.75,152.88c-1.43.21-1.46.22-1.17,2.68.08.69-.2,1.83,1.35,1.57C249.87,155.73,249.81,154.36,249.75,152.88ZM115.3,69l-.53.05q.77,5.05,1.55,10.11l.45-.06Zm117.15,93.4-.57-.21c-1.11,1.42-.87,3.28-1.24,4.95C232.54,166,231.9,164,232.45,162.39Zm1-8.6-.44,0c-.14.63-.3,1.25-.4,1.88-.15,1-.27,2-.4,2.94a3.63,3.63,0,0,0,0,.87s.43.17.5.1a1.77,1.77,0,0,0,.53-.85c.14-.94.19-1.89.24-2.83C233.47,155.16,233.45,154.47,233.45,153.79Zm-92.11-53.12a8,8,0,0,0,0-5.93Zm46.54-47.79c-.44,1.21-.31,2,.92,2.68a4.82,4.82,0,0,0,.44-1.85C189.16,53.37,188.4,53.18,187.88,52.88ZM141.2,80.61h.36V76.17C140.49,77.64,141.24,79.13,141.2,80.61Zm2.24,6.63.32,0V82.65h-.32Zm-2.2,1.5h.17v-4.5l-.17,0Zm8.52,3.76-.38,0V96.4h.38Zm.07-64c-1.3.77-1.34,1.28-.36,2.78C149.61,30.15,149.72,29.31,149.83,28.48ZM114.46,63.26l-.44.07.59,3.57.42-.08Zm-6-9.58h.48l-.2-2.29-.43,0ZM249.85,166.3c-.33.53-.61.77-.6,1s.3.46.47.68c.18-.2.46-.39.49-.62S250.05,166.86,249.85,166.3Z"/><path d="M203.93,13.16a6.34,6.34,0,0,1,3.36-4.05,8.94,8.94,0,0,1,5.52-1.17,5,5,0,0,1,3.88,3,3.35,3.35,0,0,1-2.42,4.61c-3.08.82-6.14.27-9.18-.25L205,15a3.19,3.19,0,0,1,.91-.6c1.43-.34,2.88-.6,4.32-.9A12.83,12.83,0,0,0,212,13c.78-.29.9-1,.17-1.39a4.25,4.25,0,0,0-2.38-.44,30,30,0,0,0-4,1.2C205.28,12.58,204.75,12.83,203.93,13.16Z"/><path d="M89.93,20.05a18.82,18.82,0,0,1-3.26.14c-1.81-.23-3.61-.67-5.4-1a3.37,3.37,0,0,1-2.76-3.4A3.33,3.33,0,0,1,81.33,13a10,10,0,0,1,8.8,3.33,1,1,0,0,1,.14.93,1.11,1.11,0,0,1-1,.18c-1.81-.6-3.59-1.27-5.39-1.89a5.34,5.34,0,0,0-1.5-.34,3.43,3.43,0,0,0-1.14.39c.22.38.36,1,.69,1.11a16.05,16.05,0,0,0,2.81,1c1.24.31,2.52.46,3.73.83a6.38,6.38,0,0,1,1.56,1.05Z"/><path d="M82.53,28.06a28.16,28.16,0,0,1,2.69,1.82c.47.39-.11,1.81-.83,2.24a40.24,40.24,0,0,1-4.1,2.4,7.81,7.81,0,0,1-3.2.66,1.88,1.88,0,0,1-2-1.62c-.28-1.72.22-3.17,1.6-3.72C78.53,29.13,80.43,28.69,82.53,28.06Z"/><path d="M193.29,9.61a14.75,14.75,0,0,1,2.53-6.23c-.58.14-.95.11-1,.26-.8,1.23-2.1,2.14-2,3.94.05.66-.7,1.4-1.12,2.07,0,0-.76-.26-.78-.44a9.42,9.42,0,0,1-.11-3.08A8.41,8.41,0,0,1,194.34.66c1.73-1.13,3.09-.78,4.41.79.71.84.55,2.64-.53,3.83C196.78,6.87,195.52,8.71,193.29,9.61Z"/><path d="M50,74c.1-1.24.14-2.59,1.43-3.2a2.79,2.79,0,0,1,3.18.72,3.55,3.55,0,0,1,1.22,3.64,5,5,0,0,1-1,2,2.1,2.1,0,0,1-2.53.82A4.4,4.4,0,0,1,50,74.61,4,4,0,0,1,50,74Z"/><path d="M80.92,148.25c-1.1-.39-2.21-.26-2.66-1.43a2.68,2.68,0,0,1,.87-3.53,6,6,0,0,1,5.09-1.08,2.86,2.86,0,0,1,1.66,1.25,2.1,2.1,0,0,1-.81,2.89A32.55,32.55,0,0,1,80.92,148.25Zm3.45-4.87-.13-.55a19.62,19.62,0,0,0-3.46,1.2c-.49.27-.64,1.17-.91,1.8,0,0,.38.34.42.31a5.49,5.49,0,0,0,1.39-1.27,2.18,2.18,0,0,1,1.95-1.31A4,4,0,0,0,84.37,143.38Z"/><path d="M79,153.41c1.16-1.47,2.12-2.57,3.78-2.58.35,0,.9.13,1,.34a1.15,1.15,0,0,1-.31,1A7.42,7.42,0,0,1,79,153.41Z"/><path d="M171.82,50.61a3.8,3.8,0,0,1-.23-1c0-.53,0-1.31.37-1.52a2.24,2.24,0,0,1,1.84-.24,1.75,1.75,0,0,1,.68,1.54c-.7,3.72-1.5,7.42-2.28,11.13-1.58,7.38-3.19,14.75-4.74,22.13-.93,4.45-1.92,8.9-2.62,13.39-.52,3.3-.61,6.67-.9,10a3.53,3.53,0,0,1-.25,1.52,6.38,6.38,0,0,1-1.39,1.23c-.27-.51-.82-1-.78-1.52.33-3.94.57-7.9,1.21-11.79,1-5.94,2.22-11.84,3.45-17.74,1.29-6.13,2.74-12.23,4-18.36C170.86,56.43,171.31,53.47,171.82,50.61Z"/><path d="M166.2,107.22c.52-3,1.1-6,1.53-9.09.3-2.1.32-4.23.6-6.33.31-2.28.89-4.54,1.15-6.83a83.27,83.27,0,0,1,2.64-11.91c.84-3.16,1.18-6.47,2.18-9.57A55.37,55.37,0,0,0,176.51,52a2.53,2.53,0,0,0-.46-1.51A1,1,0,0,1,176.2,49a2.19,2.19,0,0,1,2.86-.12c.93.67.51,1.35.2,2.2a23.39,23.39,0,0,0-.67,3.27c-.8,3.62-1.54,7.26-2.46,10.86C174.8,70.43,173,75.55,172,80.82,170.75,86.88,170,93,169.21,99.17c-.38,2.76-.49,5.54-.75,8.32a1.88,1.88,0,0,1-.31,1c-.24.29-.76.68-1,.59a2.11,2.11,0,0,1-.83-1c-.12-.22,0-.55,0-.83Z"/><path d="M158.43,108.38a4.83,4.83,0,0,1-.59-1.62c0-2.87-.06-5.76.2-8.62.61-6.48,1.28-13,2.15-19.41.77-5.77,1.9-11.5,2.77-17.25.56-3.64,1-7.29,1.36-10.94a4.21,4.21,0,0,0-.42-1.91,1.07,1.07,0,0,1,.45-1.53,2,2,0,0,1,2.44.3c.71.52.25,1.07.13,1.7-.46,2.38-.79,4.78-1.18,7.18-.6,3.57-1.2,7.15-1.83,10.72-.7,4-1.51,8-2.16,12-.76,4.68-1.57,9.37-2,14.09-.48,4.92-.56,9.87-.82,14.81a2.09,2.09,0,0,1-.08.34Z"/><path d="M127,104.36c-.35-5.48-.66-11-1.09-16.44-.29-3.73-.83-7.44-1.1-11.17-.4-5.61-.63-11.23-1-16.84-.16-2.58-.43-5.16-.67-7.74a4.11,4.11,0,0,0-.19-.56c-.13-.47-.47-1.22-.32-1.35a2.13,2.13,0,0,1,1.59-.51c.56.16,1.35.73,1.42,1.21.59,4.18,1.08,8.37,1.52,12.56.79,7.53.51,15.12,1.15,22.66.4,4.68.53,9.38.92,14,.3,3.68.84,7.33,1.22,11,.17,1.54.26,3.1.28,4.65,0,.31-.43.86-.7.88a1.33,1.33,0,0,1-1.59-1.11c-.38-2.49-.74-5-1.06-7.48-.16-1.26-.21-2.54-.31-3.82Z"/><path d="M133.36,83.8c-.25-4.21-.58-9-.81-13.77-.18-3.66-.23-7.33-.37-11-.1-2.55-.24-5.11-.39-7.66,0-.37-.31-.73-.37-1.11s-.3-1.24-.06-1.48a1.82,1.82,0,0,1,1.58-.44c.56.24,1.29.89,1.34,1.43.26,2.73.37,5.48.46,8.22.1,3.31.14,6.63.22,9.94q.19,8.67.38,17.35c0,1.86,0,3.72.11,5.57.18,3,.51,6.08.66,9.13.16,3.41.26,6.84.26,10.26a17.74,17.74,0,0,1-.58,3.74c-.07.31-.52.61-.86.76-.11,0-.53-.36-.65-.64a3.23,3.23,0,0,1-.2-1.17c-.25-7.21-.5-14.42-.71-21.64C133.3,89,133.36,86.68,133.36,83.8Z"/><path d="M123.78,28.38c1-.62,1.83-1.11,2.61-1.73a7.36,7.36,0,0,1,4.93-1.85,3,3,0,0,1,2.83,1.61c-.53.1-1,.33-1.35.23-1.9-.57-3.06.72-4.37,1.65-.39.27-.7.65-1.08.94C125.72,30.48,124.59,30.16,123.78,28.38Z"/><path d="M118.38,27.17a3.75,3.75,0,0,0-4.15.83c-.25.23-.84.07-1.28.08a2.93,2.93,0,0,1,.12-1.2C114,25.28,117.34,25.29,118.38,27.17Z"/><path d="M164.69,22.49c2,.1,3.71,0,4.58,1.82a2,2,0,0,1,.27,1.11,3.88,3.88,0,0,1-.5,1.13c-.36-.24-.84-.39-1.08-.71A4.48,4.48,0,0,0,163.81,24a3.84,3.84,0,0,1-1.05-.29c.26-.3.47-.7.8-.87A4.25,4.25,0,0,1,164.69,22.49Z"/><path d="M183.84,29.64l-7.74-.87c.2-.83,1-1,1.76-1.08C179.74,27.47,183,27.9,183.84,29.64Z"/><path d="M76.86,70.83c-.12-2.17,1.25-3.9,2.69-3.6.07,0,.16,0,.24,0,1.56.24,2.6,2.36,2.26,4.59a2.59,2.59,0,0,1-5.18-.17A5.87,5.87,0,0,1,76.86,70.83Z"/><path d="M93.17,67.86a6.4,6.4,0,0,1-1,1.92c-1.68,1.64-3.22.26-3.82-1.49a11.78,11.78,0,0,1-.51-3.41c0-.36.59-.91,1-1.08,1.6-.6,3.62.91,4,2.88.06.35.06.71.09,1.07Z"/><path d="M241.41,34.26c0,1-1.83,2.55-3.21,2.63-.93,0-2-1.24-2-2.45a2.79,2.79,0,0,1,2.52-2.54A2.49,2.49,0,0,1,241.41,34.26Z"/></g></g></svg>